<svg xmlns="http://www.w3.org/2000/svg" viewBox="0 0 112.15 112.15"><defs><style>.cls-1{fill:#18181d;}.cls-2{fill:#fff;}</style></defs><title>2资源 7</title><g id="图层_2" data-name="图层 2"><g id="图层_1-2" data-name="图层 1"><rect class="cls-1" width="112.15" height="112.15" rx="56.07"/><rect class="cls-2" x="43" y="72.37" width="22.91" height="2"/><rect class="cls-2" x="31.55" y="84.83" width="17.18" height="2"/><rect class="cls-2" x="25.83" y="72.38" width="11.44" height="2"/><rect class="cls-2" x="48.73" y="66.59" width="17.19" height="2"/><rect class="cls-2" x="31.56" y="66.59" width="11.42" height="2"/><rect class="cls-2" x="37.27" y="40.71" width="28.64" height="2"/><rect class="cls-2" x="31.56" y="34.06" width="11.44" height="2"/><path class="cls-2" d="M81.11,53.29l0,0A22.94,22.94,0,0,0,61.25,18.91h-24v2.86h24A20.08,20.08,0,0,1,80.59,47.15,17.56,17.56,0,0,0,63.54,25.61H43v2.87H63.56A14.65,14.65,0,0,1,77.48,47.59,11.48,11.48,0,0,0,66.4,33.2H48.72v2.86H66.4a8.62,8.62,0,0,1,7.48,12.87,22.84,22.84,0,0,0-8-1.44H43v2.86H65.92A20.08,20.08,0,0,1,85.59,66.67,17.21,17.21,0,0,0,68.85,53.32H37.27v2.87H68.89A14.32,14.32,0,0,1,83,68.44a11.48,11.48,0,0,0-11.27-9.39H37.28v2.87H71.75a8.59,8.59,0,1,1,0,17.18H31.55V82h40.2A11.48,11.48,0,0,0,83,72.58,14.33,14.33,0,0,1,68.85,84.83H54.46v2.86H68.85A17.21,17.21,0,0,0,85.37,75.22,20.07,20.07,0,0,1,65.92,90.5H37.31v2.86H65.88A22.93,22.93,0,0,0,81.11,53.29Z"/></g></g></svg>