<?xml version="1.0" encoding="UTF-8" standalone="no"?>
<svg
   version="1.1"
   id="Layer_1"
   x="0px"
   y="0px"
   viewBox="0 0 122.88 101.01"
   style="enable-background:new 0 0 122.88 101.01"
   xml:space="preserve"
   sodipodi:docname="Rewards.svg"
   inkscape:version="1.4.2 (f4327f4, 2025-05-13)"
   xmlns:inkscape="http://www.inkscape.org/namespaces/inkscape"
   xmlns:sodipodi="http://sodipodi.sourceforge.net/DTD/sodipodi-0.dtd"
   xmlns="http://www.w3.org/2000/svg"
   xmlns:svg="http://www.w3.org/2000/svg"><defs
     id="defs1" /><sodipodi:namedview
     id="namedview1"
     pagecolor="#505050"
     bordercolor="#eeeeee"
     borderopacity="1"
     inkscape:showpageshadow="0"
     inkscape:pageopacity="0"
     inkscape:pagecheckerboard="0"
     inkscape:deskcolor="#505050"
     inkscape:zoom="7.9893078"
     inkscape:cx="61.457139"
     inkscape:cy="50.505001"
     inkscape:window-width="1920"
     inkscape:window-height="1009"
     inkscape:window-x="-8"
     inkscape:window-y="-8"
     inkscape:window-maximized="1"
     inkscape:current-layer="Layer_1" /><style
     type="text/css"
     id="style1">.st0{fill-rule:evenodd;clip-rule:evenodd;}</style><g
     id="g1"
     transform="translate(0.12516729)"
     style="fill:#021851;fill-opacity:1"><path
       class="st0"
       d="m 61.44,0 5.88,4.77 7.48,-1.2 2.69,7.08 7.08,2.69 -1.2,7.48 4.77,5.88 -4.77,5.88 1.2,7.48 -7.08,2.69 -2.69,7.08 -7.48,-1.2 -5.88,4.77 -5.88,-4.77 -7.48,1.2 -2.69,-7.08 -7.08,-2.69 1.2,-7.48 -4.77,-5.88 4.77,-5.88 -1.2,-7.48 7.08,-2.69 2.69,-7.08 7.48,1.2 L 61.44,0 Z m 4.97,84.78 h 21.91 c 1.76,-1.75 3.69,-3.57 5.64,-5.42 4.11,-3.89 8.4,-7.95 12.81,-13.03 5.04,-5.81 5.58,-7.82 7.11,-13.51 0.29,-1.07 0.61,-2.27 1.03,-3.76 l 2.62,-9.21 0.03,-0.1 c 1.4,-4.1 1.51,-6.81 0.93,-8.37 -0.18,-0.48 -0.41,-0.8 -0.68,-0.97 -0.21,-0.14 -0.49,-0.19 -0.78,-0.16 -0.68,0.07 -1.45,0.5 -2.15,1.27 l -7.78,18.53 c -0.07,0.17 -0.17,0.33 -0.28,0.47 -0.46,0.83 -1.08,1.64 -1.88,2.41 l -13.8,15.39 c -0.75,0.84 -2.04,0.91 -2.87,0.16 -0.84,-0.75 -0.91,-2.04 -0.16,-2.87 1.87,-2.08 16.37,-16.31 15.63,-19.5 -0.92,-3.93 -10.8,6.16 -11.98,7.2 l -0.03,0.03 c -5.79,5.48 -8.28,6.78 -12.82,9.15 -0.95,0.5 -1.99,1.04 -3.28,1.74 -0.51,0.28 -1.01,0.62 -1.5,0.99 -0.52,0.4 -1.02,0.81 -1.49,1.21 -2.4,2.02 -3.66,3.66 -4.38,5.47 -0.75,1.88 -1.02,4.17 -1.39,7.31 -0.15,1.26 -0.26,2.52 -0.35,3.77 -0.05,0.61 -0.08,1.21 -0.11,1.8 v 0 z m -9.94,0 H 34.55 C 32.79,83.03 30.86,81.21 28.9,79.36 24.79,75.47 20.5,71.41 16.09,66.33 11.05,60.52 10.51,58.51 8.98,52.82 8.69,51.75 8.37,50.55 7.95,49.06 L 5.33,39.85 5.3,39.75 c -1.4,-4.1 -1.51,-6.81 -0.93,-8.37 0.18,-0.48 0.41,-0.8 0.68,-0.97 0.21,-0.14 0.49,-0.19 0.78,-0.16 0.68,0.07 1.45,0.5 2.15,1.27 l 7.78,18.53 c 0.07,0.17 0.17,0.33 0.28,0.47 0.46,0.83 1.08,1.64 1.88,2.41 l 13.8,15.39 c 0.75,0.84 2.04,0.91 2.87,0.16 0.84,-0.75 0.91,-2.04 0.16,-2.87 C 32.9,63.52 18.4,49.29 19.14,46.1 c 0.92,-3.93 10.8,6.16 11.98,7.2 l 0.03,0.03 c 5.79,5.48 8.28,6.78 12.82,9.15 0.95,0.5 1.99,1.04 3.28,1.74 0.51,0.28 1.01,0.62 1.5,0.99 0.52,0.4 1.02,0.81 1.49,1.21 2.4,2.02 3.66,3.66 4.38,5.47 0.75,1.88 1.02,4.17 1.39,7.31 0.15,1.26 0.26,2.52 0.35,3.77 0.05,0.62 0.08,1.22 0.11,1.81 v 0 z m -27.02,0.7 c -0.31,0.36 -0.5,0.83 -0.5,1.34 v 12.14 c 0,1.13 0.92,2.04 2.04,2.04 h 27.58 c 1.13,0 2.04,-0.92 2.04,-2.04 V 86.71 c 0,-1.3 -0.08,-2.7 -0.17,-4 -0.09,-1.33 -0.21,-2.65 -0.36,-3.96 -0.4,-3.43 -0.7,-5.94 -1.66,-8.35 -0.99,-2.47 -2.58,-4.6 -5.53,-7.09 -0.54,-0.46 -1.09,-0.92 -1.67,-1.35 -0.61,-0.46 -1.27,-0.9 -2.01,-1.31 -1.2,-0.65 -2.32,-1.24 -3.34,-1.78 -4.2,-2.2 -6.5,-3.4 -11.91,-8.52 -0.04,-0.04 -0.09,-0.08 -0.13,-0.11 L 28.61,45.63 C 25.97,42.54 20.74,38.86 16.93,42.2 14.9,37.37 12.9,26.84 6.26,26.19 5.05,26.07 3.88,26.33 2.86,26.99 1.89,27.62 1.09,28.6 0.59,29.95 -0.29,32.3 -0.27,35.95 1.45,41 l 2.6,9.15 c 0.38,1.32 0.71,2.59 1.02,3.71 1.7,6.35 2.3,8.6 7.97,15.12 4.49,5.17 8.89,9.33 13.1,13.32 1.09,1.06 2.19,2.11 3.31,3.18 v 0 z m 3.9,3.38 c 0.27,0.06 0.55,0.06 0.83,0 h 22.34 v 8.06 H 33.03 v -8.06 h 0.32 z m 60.08,-3.38 c 0.31,0.36 0.5,0.83 0.5,1.34 v 12.14 c 0,1.13 -0.91,2.04 -2.04,2.04 H 64.32 c -1.13,0 -2.04,-0.92 -2.04,-2.04 V 86.71 c 0,-0.07 0,-0.15 0.01,-0.22 0.03,-1.31 0.08,-2.58 0.16,-3.78 0.09,-1.33 0.21,-2.65 0.36,-3.96 0.4,-3.43 0.7,-5.94 1.66,-8.35 0.99,-2.47 2.58,-4.6 5.53,-7.09 0.54,-0.46 1.09,-0.92 1.67,-1.35 0.61,-0.46 1.27,-0.9 2.01,-1.31 1.2,-0.65 2.32,-1.24 3.34,-1.78 4.2,-2.2 6.5,-3.4 11.91,-8.52 0.04,-0.04 0.09,-0.08 0.13,-0.11 l 5.22,-4.61 c 2.64,-3.09 7.87,-6.77 11.68,-3.43 0.99,-2.37 4.41,-11.65 5.59,-13.07 1.46,-1.75 3.31,-2.77 5.08,-2.95 1.21,-0.12 2.38,0.14 3.4,0.8 0.97,0.63 1.77,1.61 2.27,2.96 0.88,2.35 0.86,6 -0.86,11.05 l -2.6,9.15 c -0.38,1.32 -0.71,2.59 -1.02,3.71 -1.7,6.35 -2.3,8.6 -7.97,15.12 -4.49,5.17 -8.88,9.33 -13.1,13.32 -1.1,1.07 -2.2,2.12 -3.32,3.19 v 0 z m -3.9,3.38 c -0.27,0.06 -0.55,0.06 -0.83,0 H 66.36 v 8.06 h 23.49 v -8.06 h -0.32 z m -28.09,-71.68 2.75,6.72 7.25,0.54 -5.54,4.69 1.73,7.06 -6.18,-3.83 -6.18,3.83 1.73,-7.05 -5.56,-4.69 7.25,-0.54 2.75,-6.72 v 0 z m 0,-5.57 c 8.33,0 15.08,6.76 15.08,15.08 0,8.33 -6.76,15.08 -15.08,15.08 -8.33,0 -15.08,-6.76 -15.08,-15.08 0,-8.32 6.75,-15.08 15.08,-15.08 z"
       id="path1"
       style="fill:#021851;fill-opacity:1" /></g></svg>
