<?xml version="1.0" encoding="UTF-8" standalone="no"?>
<svg
   width="585"
   height="512.56921"
   viewBox="0 0 585 512.56924"
   version="1.1"
   id="svg127"
   sodipodi:docname="TokenTrading.svg"
   inkscape:version="1.4.2 (f4327f4, 2025-05-13)"
   xmlns:inkscape="http://www.inkscape.org/namespaces/inkscape"
   xmlns:sodipodi="http://sodipodi.sourceforge.net/DTD/sodipodi-0.dtd"
   xmlns:xlink="http://www.w3.org/1999/xlink"
   xmlns="http://www.w3.org/2000/svg"
   xmlns:svg="http://www.w3.org/2000/svg">
  <sodipodi:namedview
     id="namedview127"
     pagecolor="#505050"
     bordercolor="#eeeeee"
     borderopacity="1"
     inkscape:showpageshadow="0"
     inkscape:pageopacity="0"
     inkscape:pagecheckerboard="0"
     inkscape:deskcolor="#505050"
     inkscape:zoom="2.2104342"
     inkscape:cx="292.47647"
     inkscape:cy="256.28448"
     inkscape:window-width="2560"
     inkscape:window-height="1351"
     inkscape:window-x="-9"
     inkscape:window-y="-9"
     inkscape:window-maximized="1"
     inkscape:current-layer="svg127" />
  <defs
     id="defs34">
    <radialGradient
       id="a"
       cx="222.25197"
       cy="222.25197"
       r="314.26428"
       gradientTransform="scale(1.3160738,0.75983579)"
       gradientUnits="userSpaceOnUse"
       fx="222.25197"
       fy="222.25197">
      <stop
         offset="0"
         stop-color="#42e8e0"
         id="stop1" />
      <stop
         offset="1"
         stop-color="#42e8e0"
         stop-opacity="0"
         id="stop2" />
    </radialGradient>
    <linearGradient
       id="b"
       x1="0.5"
       x2="0.5"
       y2="1"
       gradientUnits="objectBoundingBox">
      <stop
         offset="0"
         stop-color="#42e8e0"
         id="stop3" />
      <stop
         offset="0.151"
         stop-color="#42e3df"
         id="stop4" />
      <stop
         offset="0.328"
         stop-color="#44d4de"
         id="stop5" />
      <stop
         offset="0.52"
         stop-color="#48bddd"
         id="stop6" />
      <stop
         offset="0.721"
         stop-color="#4d9bda"
         id="stop7" />
      <stop
         offset="0.927"
         stop-color="#5471d8"
         id="stop8" />
      <stop
         offset="1"
         stop-color="#5761d7"
         id="stop9" />
    </linearGradient>
    <linearGradient
       id="n"
       x1="486.53018"
       y1="99.134392"
       x2="662.01941"
       y2="125.86969"
       xlink:href="#b"
       gradientTransform="scale(0.62220402,1.6071899)"
       gradientUnits="userSpaceOnUse" />
    <linearGradient
       id="p"
       x1="537.15521"
       y1="117.40669"
       x2="713.52631"
       y2="155.12263"
       xlink:href="#b"
       gradientTransform="scale(0.70422978,1.4199911)"
       gradientUnits="userSpaceOnUse" />
    <linearGradient
       id="r"
       x1="538.32422"
       y1="819.64349"
       x2="223.07246"
       y2="418.10638"
       gradientUnits="userSpaceOnUse"
       gradientTransform="scale(1.3160552,0.75984656)">
      <stop
         offset="0"
         stop-color="#5761d7"
         id="stop10" />
      <stop
         offset="0.178"
         stop-color="#5b65d8"
         id="stop11" />
      <stop
         offset="0.388"
         stop-color="#6a72de"
         id="stop12" />
      <stop
         offset="0.613"
         stop-color="#8188e8"
         id="stop13" />
      <stop
         offset="0.849"
         stop-color="#a2a6f5"
         id="stop14" />
      <stop
         offset="1"
         stop-color="#bcbeff"
         id="stop15" />
    </linearGradient>
    <linearGradient
       id="s"
       x1="-0.75800002"
       y1="0.5"
       x2="0.88"
       y2="0.5"
       gradientUnits="objectBoundingBox">
      <stop
         offset="0"
         stop-color="#c0bff6"
         id="stop16" />
      <stop
         offset="0.294"
         stop-color="#c4c3f6"
         id="stop17" />
      <stop
         offset="0.64"
         stop-color="#d2d2f9"
         id="stop18" />
      <stop
         offset="1"
         stop-color="#e9e9fd"
         id="stop19" />
    </linearGradient>
    <linearGradient
       id="t"
       x1="-3934.2014"
       y1="3925.0078"
       x2="-3463.0168"
       y2="3774.1338"
       xlink:href="#s"
       gradientTransform="scale(0.84043631,1.1898582)"
       gradientUnits="userSpaceOnUse" />
    <linearGradient
       id="u"
       x1="2532.6992"
       y1="6513.1924"
       x2="2532.6992"
       y2="6492.1387"
       xlink:href="#s"
       gradientTransform="scale(1.4535423,0.6879745)"
       gradientUnits="userSpaceOnUse" />
    <linearGradient
       id="v"
       x1="5268.8511"
       y1="5182.8745"
       x2="5268.8511"
       y2="5070.853"
       xlink:href="#s"
       gradientTransform="scale(0.83759648,1.1938923)"
       gradientUnits="userSpaceOnUse" />
    <linearGradient
       id="w"
       x1="173.56046"
       y1="322.02271"
       x2="247.74519"
       y2="448.36859"
       gradientUnits="userSpaceOnUse"
       gradientTransform="scale(1.7168123,0.58247487)">
      <stop
         offset="0"
         stop-color="#080545"
         id="stop20" />
      <stop
         offset="0.075"
         stop-color="#163c6b"
         id="stop21" />
      <stop
         offset="0.154"
         stop-color="#23708e"
         id="stop22" />
      <stop
         offset="0.232"
         stop-color="#2e9bab"
         id="stop23" />
      <stop
         offset="0.307"
         stop-color="#36bcc2"
         id="stop24" />
      <stop
         offset="0.378"
         stop-color="#3dd4d2"
         id="stop25" />
      <stop
         offset="0.444"
         stop-color="#40e3dc"
         id="stop26" />
      <stop
         offset="0.5"
         stop-color="#42e8e0"
         id="stop27" />
      <stop
         offset="0.553"
         stop-color="#40e2dc"
         id="stop28" />
      <stop
         offset="0.619"
         stop-color="#3cd3d1"
         id="stop29" />
      <stop
         offset="0.692"
         stop-color="#36b9c0"
         id="stop30" />
      <stop
         offset="0.77"
         stop-color="#2d95a7"
         id="stop31" />
      <stop
         offset="0.853"
         stop-color="#216788"
         id="stop32" />
      <stop
         offset="0.938"
         stop-color="#133062"
         id="stop33" />
      <stop
         offset="1"
         stop-color="#080344"
         id="stop34" />
    </linearGradient>
    <linearGradient
       inkscape:collect="always"
       xlink:href="#b"
       id="linearGradient127"
       gradientUnits="userSpaceOnUse"
       x1="139.04793"
       x2="139.04793"
       y2="445.96228"
       gradientTransform="scale(1.4897992,0.67123138)"
       y1="387.36847" />
    <linearGradient
       inkscape:collect="always"
       xlink:href="#b"
       id="linearGradient128"
       gradientUnits="userSpaceOnUse"
       x1="284.87601"
       x2="284.87601"
       y2="279.40601"
       gradientTransform="scale(1.0182225,0.98210365)"
       y1="215.25133" />
    <linearGradient
       inkscape:collect="always"
       xlink:href="#b"
       id="linearGradient129"
       gradientUnits="userSpaceOnUse"
       x1="242.59749"
       x2="242.59749"
       y2="253.52367"
       gradientTransform="scale(1.1279954,0.88652848)"
       y1="198.06371" />
    <linearGradient
       inkscape:collect="always"
       xlink:href="#b"
       id="linearGradient130"
       gradientUnits="userSpaceOnUse"
       x1="218.99591"
       x2="218.99591"
       y2="223.25459"
       gradientTransform="scale(1.2076847,0.82803067)"
       y1="173.30612" />
    <linearGradient
       inkscape:collect="always"
       xlink:href="#b"
       id="linearGradient131"
       gradientUnits="userSpaceOnUse"
       x1="221.53651"
       x2="221.53651"
       y2="169.87608"
       gradientTransform="scale(1.1515964,0.86835975)"
       y1="127.3327" />
    <linearGradient
       inkscape:collect="always"
       xlink:href="#b"
       id="linearGradient132"
       gradientUnits="userSpaceOnUse"
       x1="243.11429"
       x2="243.11429"
       y2="119.63463"
       gradientTransform="scale(1.0201082,0.98028815)"
       y1="76.564812" />
    <linearGradient
       inkscape:collect="always"
       xlink:href="#b"
       id="linearGradient133"
       gradientUnits="userSpaceOnUse"
       x1="128.70042"
       x2="128.70042"
       y2="372.35098"
       gradientTransform="scale(1.4962524,0.66833644)"
       y1="319.44455" />
    <linearGradient
       inkscape:collect="always"
       xlink:href="#b"
       id="linearGradient134"
       gradientUnits="userSpaceOnUse"
       x1="122.76297"
       x2="122.76297"
       y2="296.96042"
       gradientTransform="scale(1.4868009,0.67258503)"
       y1="251.64578" />
    <linearGradient
       inkscape:collect="always"
       xlink:href="#b"
       id="linearGradient135"
       gradientUnits="userSpaceOnUse"
       x1="127.46575"
       x2="127.46575"
       y2="224.58131"
       gradientTransform="scale(1.4194001,0.70452301)"
       y1="183.82874" />
    <linearGradient
       inkscape:collect="always"
       xlink:href="#b"
       id="linearGradient136"
       gradientUnits="userSpaceOnUse"
       x1="154.76997"
       x2="154.76997"
       y2="143.24738"
       gradientTransform="scale(1.182346,0.84577614)"
       y1="103.04166" />
    <linearGradient
       inkscape:collect="always"
       xlink:href="#b"
       id="linearGradient137"
       gradientUnits="userSpaceOnUse"
       x1="315.54434"
       x2="315.54434"
       y2="65.435783"
       gradientTransform="scale(0.70339124,1.4216839)"
       y1="32.773647" />
    <linearGradient
       inkscape:collect="always"
       xlink:href="#b"
       id="linearGradient138"
       gradientUnits="userSpaceOnUse"
       x1="328.91837"
       x2="328.91837"
       y2="274.89816"
       gradientTransform="scale(0.75694903,1.3210929)"
       y1="40.698879" />
    <linearGradient
       inkscape:collect="always"
       xlink:href="#b"
       id="linearGradient139"
       x1="479.34091"
       y1="100.00446"
       x2="657.39545"
       y2="127.13057"
       gradientTransform="scale(0.62744814,1.5937572)"
       gradientUnits="userSpaceOnUse" />
    <linearGradient
       inkscape:collect="always"
       xlink:href="#b"
       id="linearGradient140"
       x1="529.90021"
       y1="119.11698"
       x2="709.8045"
       y2="157.58846"
       gradientTransform="scale(0.71273489,1.4030462)"
       gradientUnits="userSpaceOnUse" />
    <linearGradient
       inkscape:collect="always"
       xlink:href="#s"
       id="linearGradient141"
       gradientUnits="userSpaceOnUse"
       x1="-112.20549"
       y1="438.55774"
       x2="349.6745"
       y2="438.55774"
       gradientTransform="scale(1.316078,0.75983335)" />
  </defs>
  <g
     transform="translate(-64.382,-46.59377)"
     id="g127">
    <ellipse
       cx="292.5"
       cy="168.875"
       rx="292.5"
       ry="168.875"
       transform="translate(64.382,221.413)"
       opacity="0.25"
       fill="url(#a)"
       style="isolation:isolate;mix-blend-mode:lighten;fill:url(#a)"
       id="ellipse34" />
    <path
       d="m 308.091,260.853 a 5.514,5.514 0 0 0 -4.165,-1.241 29.744,29.744 0 0 0 -21.226,14.639 c -7.281,12.919 1.772,22.871 3.679,24.752 a 75.614,75.614 0 0 1 -5.862,6.39 c -2.828,-1.828 -5.821,-3.8 -8.945,-5.893 -5.062,-3.371 -10.415,-7.105 -16.02,-11.086 q -2.077,-1.508 -4.211,-3.053 l -2.144,-1.554 -2.133,-1.593 -4.337,-3.236 -4.232,-3.25 c 1.558,-1.307 4.592,-3.922 8.314,-7.456 3.146,0.386 19.935,1.847 27.584,-9.731 6.482,-9.809 1.317,-17.3 -1.453,-20.273 a 4.811,4.811 0 0 0 -3.538,-1.361 32.306,32.306 0 0 0 -22,10.318 c -9.092,10.1 -2.652,19.08 -1.33,20.712 -3.635,3.45 -6.6,6.011 -8.174,7.331 -2.773,-2.119 -5.491,-4.314 -8.275,-6.52 -1.487,-1.163 -2.9,-2.368 -4.364,-3.562 -1.464,-1.194 -2.924,-2.4 -4.369,-3.613 -4.71,-4.01 -9.425,-8.1 -13.972,-12.257 0.8,-0.495 2.127,-1.333 3.856,-2.465 1.9,-1.24 4.273,-2.837 6.929,-4.7 2.617,0.488 18.41,2.947 27.287,-6.863 7.432,-8.211 3.631,-15.091 1.446,-17.859 a 4.287,4.287 0 0 0 -3.126,-1.405 34.3,34.3 0 0 0 -22.046,7.728 c -9.7,8.128 -5.329,16.208 -4.188,17.968 -4.986,3.507 -8.965,6.035 -10.691,7.11 -0.81,-0.745 -1.627,-1.486 -2.424,-2.236 -7.579,-7.044 -14.714,-14.228 -21.179,-21.305 a 75.556,75.556 0 0 0 9.081,-5.14 c 0.981,-0.641 2.016,-1.361 3.071,-2.121 2.516,0.35 15.411,1.662 21.727,-7 5.377,-7.372 1.626,-13.157 -0.422,-15.46 a 3.685,3.685 0 0 0 -2.7,-1.091 26.025,26.025 0 0 0 -17.454,7.523 c -7.228,7.36 -2.957,14.135 -1.838,15.644 a 79.053,79.053 0 0 1 -11.936,7.13 c -2.706,-2.975 -5.3,-5.932 -7.748,-8.847 q -2.547,-3.031 -4.884,-5.995 c 0.021,-0.025 0.047,-0.045 0.049,-0.078 0.008,-0.132 -0.158,-0.28 -0.373,-0.334 q -0.814,-1.038 -1.6,-2.064 c 0.608,-0.921 3.263,-4.96 6.483,-10.03 2.652,0.078 14.719,-0.113 18.318,-9.727 3.1,-8.292 -1.882,-13.908 -4.382,-16.083 a 3.707,3.707 0 0 0 -2.8,-0.837 20.045,20.045 0 0 0 -14.3,9.8 c -4.9,8.605 1.058,15.263 2.382,16.583 -2.9,4.562 -5.334,8.281 -6.219,9.629 a 210.864,210.864 0 0 1 -12.758,-18.612 l -1.845,-3.012 c -0.6,-0.983 -1.075,-1.946 -1.6,-2.882 -0.139,-0.257 -0.269,-0.5 -0.407,-0.747 1.24,-0.747 5.663,-4.136 1.723,-12.63 a 30.25,30.25 0 0 0 -11.739,-13.03 2.716,2.716 0 0 0 -2.275,-0.3 c -2.023,0.893 -6.048,3.719 -3.456,11.575 3.047,9.237 13.13,13.64 15.1,14.424 0.128,0.244 0.25,0.475 0.38,0.724 0.506,0.939 0.968,1.906 1.548,2.891 0.58,0.985 1.181,1.995 1.791,3.025 a 210.325,210.325 0 0 0 14.129,20.938 c -3.2,-0.773 -11.121,-2.674 -20.216,-4.792 -1.174,-1.333 -7.288,-7.5 -22.72,-10.906 -13.306,-2.939 -20.378,-1.531 -22.958,-0.711 a 0.9,0.9 0 0 0 -0.474,1.53 c 1.653,2.232 6.823,7.461 20.795,11.354 16.183,4.51 23.78,0.228 25.288,-0.794 9.61,2.238 17.919,4.236 20.744,4.919 q 2.413,3.15 5.057,6.382 c 2.956,3.617 6.134,7.3 9.485,11 -2.1,0.18 -7.928,0.63 -15.947,0.878 -1.626,-1.159 -10.4,-6.859 -26.314,-7.21 -13.57,-0.3 -19.216,2.908 -21.115,4.425 -0.56,0.447 -0.4,1.211 0.378,1.841 2.672,2.153 10.1,6.9 24.775,8.13 17.008,1.424 21.608,-5.167 22.426,-6.665 8.246,-0.251 14.208,-0.718 16.248,-0.894 5.876,6.47 12.3,13.016 19.073,19.453 q 2.211,2.122 4.492,4.218 c -1.909,0.282 -7.7,1.114 -15.736,2.047 -2.161,-1.238 -13.025,-6.863 -29.918,-5.43 -14.519,1.232 -19.657,5.681 -21.266,7.7 -0.475,0.593 -0.1,1.478 0.9,2.131 3.425,2.232 12.61,6.974 28.555,6.713 18.819,-0.31 21.7,-8.945 22.081,-10.6 8.259,-0.959 14.16,-1.811 15.919,-2.071 3.85,3.536 7.8,7.024 11.75,10.455 1.435,1.233 2.9,2.446 4.338,3.661 1.438,1.215 2.856,2.43 4.333,3.609 2.928,2.368 5.781,4.727 8.709,6.991 l 1.08,0.846 c -1.337,0.482 -5.122,1.8 -11.122,3.477 -2.61,-1.2 -16.144,-6.818 -34.347,-3 -15.55,3.258 -19.927,9.304 -21.121,11.958 -0.354,0.781 0.306,1.814 1.586,2.486 4.38,2.3 15.778,6.964 33.171,4.706 20.793,-2.7 21.271,-13.807 21.205,-15.66 6.1,-1.709 9.92,-3.04 11.223,-3.512 l 2.656,2.08 4.314,3.282 2.123,1.617 2.135,1.579 4.193,3.1 c 5.582,4.044 10.917,7.838 15.967,11.267 3.4,2.328 6.64,4.495 9.689,6.5 -1.277,0.518 -5.193,2.057 -11.221,4.017 -2.166,-0.983 -17.615,-7.478 -37.917,-2.6 -16.792,4.039 -21.216,10.9 -22.367,13.889 -0.341,0.882 0.439,2.018 1.876,2.738 4.915,2.461 17.627,7.38 36.482,4.42 22.128,-3.474 22.407,-15.513 22.239,-17.9 6.316,-2.047 10.368,-3.65 11.56,-4.136 5.7,3.735 10.687,6.863 14.642,9.29 3.1,1.9 5.573,3.373 7.276,4.369 1.703,0.996 2.644,1.529 2.644,1.529 l 1.891,-1.731 c 0,0 -0.885,-0.486 -2.569,-1.457 -1.684,-0.971 -4.14,-2.4 -7.231,-4.258 -4.117,-2.477 -9.368,-5.711 -15.392,-9.594 a 75.993,75.993 0 0 0 5.933,-6.464 c 2.9,0.126 22.094,0.376 27.6,-14.534 4.568,-12.374 -2.882,-20.736 -6.617,-23.97 z"
       transform="translate(10.876,32.149)"
       fill="#0b0244"
       opacity="0.05"
       id="path34" />
    <g
       transform="translate(173.783,46.594)"
       id="g46">
      <g
         transform="translate(19.004,276.461)"
         opacity="0.7"
         id="g35">
        <path
           d="m 250.8,274.326 c 0,0 -11.156,24.619 -45.534,25.012 -26.339,0.3 -37.333,-10.981 -41.034,-16.275 a 3.982,3.982 0 0 1 0.346,-5.008 c 4.356,-4.683 16.574,-15 41.4,-17.6 32.412,-3.39 44.822,13.871 44.822,13.871 z"
           transform="translate(-163.507,-260.015)"
           fill="url(#b)"
           id="path35"
           style="fill:url(#linearGradient127)" />
      </g>
      <g
         transform="translate(140.636,213.485)"
         opacity="0.7"
         id="g36">
        <path
           d="m 257.754,273.175 c 0,0 25.786,8.1 49,-17.261 17.785,-19.429 16.705,-35.146 15.228,-41.434 a 3.984,3.984 0 0 0 -3.964,-3.08 c -6.4,0.124 -22.23,2.351 -40.721,19.124 -24.134,21.893 -19.543,42.651 -19.543,42.651 z"
           transform="translate(-257.405,-211.399)"
           fill="url(#b)"
           id="path36"
           style="fill:url(#linearGradient128)" />
      </g>
      <g
         transform="translate(121.159,167.097)"
         opacity="0.7"
         id="g37">
        <path
           d="m 242.39,222.137 c 0,0 21.345,10.031 44.4,-9.17 17.66,-14.71 18.572,-28.427 18.033,-34.037 a 3.478,3.478 0 0 0 -3.065,-3.13 c -5.544,-0.643 -19.5,-0.576 -37.456,11.754 -23.443,16.095 -21.912,34.583 -21.912,34.583 z"
           transform="translate(-242.369,-175.589)"
           fill="url(#b)"
           id="path37"
           style="fill:url(#linearGradient129)" />
      </g>
      <g
         transform="translate(110.729,125.528)"
         opacity="0.7"
         id="g38">
        <path
           d="m 234.317,181.106 c 0,0 18.5,10.929 41.047,-4.5 17.278,-11.823 19.283,-24.183 19.275,-29.317 a 3.166,3.166 0 0 0 -2.51,-3.1 c -4.973,-1.06 -17.631,-2.2 -34.975,7.443 -22.638,12.578 -22.837,29.474 -22.837,29.474 z"
           transform="translate(-234.317,-143.499)"
           fill="url(#b)"
           id="path38"
           style="fill:url(#linearGradient130)" />
      </g>
      <g
         transform="translate(105.945,82.873)"
         opacity="0.7"
         id="g39">
        <path
           d="m 230.629,145.182 c 0,0 16.2,8.176 34.343,-6.093 13.9,-10.932 14.9,-21.462 14.605,-25.788 a 2.674,2.674 0 0 0 -2.289,-2.473 c -4.25,-0.615 -14.985,-0.865 -29.063,8.23 -18.374,11.871 -17.596,26.124 -17.596,26.124 z"
           transform="translate(-230.624,-110.57)"
           fill="url(#b)"
           id="path39"
           style="fill:url(#linearGradient131)" />
      </g>
      <g
         transform="translate(100,36.869)"
         opacity="0.7"
         id="g40">
        <path
           d="m 226.262,116.434 c 0,0 17.3,5.479 32.926,-11.509 11.973,-13.016 11.274,-23.569 10.292,-27.794 a 2.677,2.677 0 0 0 -2.656,-2.075 c -4.294,0.074 -14.929,1.543 -27.371,12.775 -16.239,14.659 -13.191,28.603 -13.191,28.603 z"
           transform="translate(-226.035,-75.056)"
           fill="url(#b)"
           id="path40"
           style="fill:url(#linearGradient132)" />
      </g>
      <g
         transform="translate(5.376,216.201)"
         opacity="0.7"
         id="g41">
        <path
           d="m 232.149,227.564 c 0,0 -10.822,21.94 -41.934,21.277 -23.835,-0.508 -33.447,-11.041 -36.638,-15.94 a 3.605,3.605 0 0 1 0.462,-4.52 c 4.079,-4.108 15.438,-13.079 37.978,-14.693 29.418,-2.108 40.132,13.876 40.132,13.876 z"
           transform="translate(-152.987,-213.496)"
           fill="url(#b)"
           id="path41"
           style="fill:url(#linearGradient133)" />
      </g>
      <g
         transform="translate(0,158.888)"
         opacity="0.7"
         id="g42">
        <path
           d="m 216.211,186.333 c 0,0 -11.945,17.164 -38.157,12.638 -20.082,-3.468 -26.863,-13.6 -28.937,-18.144 a 3.082,3.082 0 0 1 0.968,-3.76 c 3.972,-2.952 14.717,-9.087 33.973,-7.579 25.133,1.969 32.153,16.845 32.153,16.845 z"
           transform="translate(-148.837,-169.252)"
           fill="url(#b)"
           id="path42"
           style="fill:url(#linearGradient134)" />
      </g>
      <g
         transform="translate(4.101,107.408)"
         opacity="0.7"
         id="g43">
        <path
           d="m 209.847,149.972 c 0,0 -12.64,13.4 -34.888,6.046 -17.045,-5.635 -21.634,-15.341 -22.849,-19.572 a 2.715,2.715 0 0 1 1.332,-3.152 c 3.845,-2.054 14,-6 30.585,-2.181 21.64,4.987 25.82,18.859 25.82,18.859 z"
           transform="translate(-152.003,-129.51)"
           fill="url(#b)"
           id="path43"
           style="fill:url(#linearGradient135)" />
      </g>
      <g
         transform="translate(13.455,52.535)"
         opacity="0.7"
         id="g44">
        <path
           d="m 206.76,118.52 c 0,0 -15.083,8.314 -32.785,-4.593 -13.563,-9.89 -14.873,-19.843 -14.744,-23.957 a 2.54,2.54 0 0 1 2.086,-2.425 c 4.01,-0.729 14.183,-1.338 27.851,6.8 17.839,10.629 17.592,24.175 17.592,24.175 z"
           transform="translate(-159.224,-87.15)"
           fill="url(#b)"
           id="path44"
           style="fill:url(#linearGradient136)" />
      </g>
      <g
         transform="translate(79.831)"
         opacity="0.7"
         id="g45">
        <path
           d="m 217.149,93.029 c 0,0 -10.787,-10.1 -4.956,-27.962 4.466,-13.687 12.236,-17.4 15.627,-18.385 a 2.177,2.177 0 0 1 2.531,1.058 c 1.659,3.077 4.856,11.213 1.843,24.521 -3.93,17.373 -15.045,20.768 -15.045,20.768 z"
           transform="translate(-210.464,-46.594)"
           fill="url(#b)"
           id="path45"
           style="fill:url(#linearGradient137)" />
      </g>
      <path
         d="m 186.582,341.814 a 0.468,0.468 0 0 1 0.469,-0.473 358.223,358.223 0 0 0 82.357,-10.294 c -1.832,-4.074 -3.741,-8.469 -5.688,-13.168 -2.924,-6.933 -5.843,-14.544 -8.827,-22.629 q -1.076,-3.047 -2.18,-6.176 -0.552,-1.562 -1.11,-3.145 -0.525,-1.593 -1.058,-3.2 -1.063,-3.222 -2.15,-6.511 c -0.418,-1.356 -0.843,-2.735 -1.266,-4.106 -5.126,1.145 -34.314,7.214 -76.137,7.086 a 0.471,0.471 0 1 1 0,-0.942 c 41.53,0.127 70.562,-5.869 75.857,-7.047 -0.172,-0.56 -0.342,-1.109 -0.516,-1.67 -1.424,-4.479 -2.663,-9.1 -3.986,-13.748 -0.683,-2.32 -1.237,-4.691 -1.858,-7.056 -0.6,-2.371 -1.231,-4.745 -1.81,-7.144 -1.552,-6.669 -3.052,-13.43 -4.377,-20.248 -5.536,0.006 -40.439,-0.148 -73.57,-4.753 a 0.471,0.471 0 0 1 0.128,-0.933 c 32.706,4.545 67.157,4.746 73.252,4.744 -0.516,-2.694 -1.009,-5.4 -1.456,-8.108 -2.13,-12.353 -3.7,-24.8 -4.679,-36.988 -5.723,-0.439 -34.466,-3 -62.446,-11.863 a 0.47187286,0.47187286 0 1 1 0.284,-0.9 c 27.686,8.768 56.118,11.346 62.1,11.811 -0.54,-6.977 -0.891,-13.868 -1.026,-20.6 q -0.132,-6.016 -0.041,-11.844 c -6.239,-4 -39.063,-24.968 -54.809,-33.3 a 0.471,0.471 0 0 1 0.44,-0.832 c 15.4,8.149 47.079,28.343 54.384,33.023 a 319.942,319.942 0 0 1 2.925,-38.246 q 0.373,-2.792 0.732,-5.464 c 0.242,-1.78 0.617,-3.5 0.906,-5.184 0.615,-3.365 1.2,-6.558 1.747,-9.559 0.693,-2.97 1.341,-5.75 1.94,-8.32 0.626,-2.564 1.108,-4.941 1.707,-7.047 2.441,-8.408 3.836,-13.213 3.836,-13.213 l 0.31,0.1 c 0,0 -1.328,4.816 -3.649,13.244 -0.57,2.109 -1.019,4.491 -1.608,7.056 q -0.845,3.859 -1.821,8.327 c -0.506,3 -1.044,6.192 -1.613,9.557 -0.266,1.684 -0.614,3.4 -0.832,5.179 -0.218,1.779 -0.433,3.6 -0.655,5.456 a 316.887,316.887 0 0 0 -2.352,34.045 c 5.636,-4.707 34.343,-28.752 50.128,-43.411 a 0.471,0.471 0 0 1 0.641,0.69 c -16.515,15.337 -47.144,40.924 -50.784,43.959 q -0.023,1.9 -0.025,3.819 a 0.471,0.471 0 0 1 0.136,0.646 0.479,0.479 0 0 1 -0.137,0.118 q 0.01,5.495 0.2,11.157 c 0.184,5.441 0.521,10.99 0.974,16.6 5.2,-1.632 31.886,-10.682 58.622,-32.156 a 0.464,0.464 0 0 1 0.662,0.071 0.471,0.471 0 0 1 -0.071,0.662 198.516,198.516 0 0 1 -42.811,26.069 152.462,152.462 0 0 1 -16.32,6.315 407.107,407.107 0 0 0 5.481,40.584 c 0.258,1.439 0.548,2.872 0.826,4.307 7.375,-3.143 37.2,-16.195 64.841,-33.226 a 0.472,0.472 0 0 1 0.495,0.8 c -22.108,13.62 -45.6,24.7 -57.947,30.22 -3.257,1.456 -5.732,2.522 -7.206,3.149 1.583,8.022 3.444,15.969 5.376,23.784 0.609,2.376 1.269,4.727 1.9,7.074 0.649,2.342 1.231,4.689 1.942,6.986 1.3,4.347 2.532,8.658 3.908,12.857 8.581,-4.781 37.8,-21.582 64.581,-42.968 a 0.47109925,0.47109925 0 1 1 0.587,0.737 c -27,21.563 -56.481,38.474 -64.874,43.145 q 1.049,3.245 2.082,6.437 1.123,3.251 2.225,6.438 0.55,1.593 1.095,3.167 0.575,1.564 1.144,3.109 1.139,3.091 2.249,6.1 c 3.073,7.987 6.074,15.5 9.069,22.341 1.83,4.25 3.627,8.252 5.354,11.981 5.562,-3.422 34.036,-21.686 64.011,-54.485 a 0.47288899,0.47288899 0 1 1 0.7,0.636 c -30.189,33.032 -58.9,51.386 -64.3,54.708 3.69,7.924 7.055,14.585 9.749,19.708 2.023,3.846 3.675,6.83 4.823,8.845 1.148,2.015 1.768,3.051 1.768,3.051 l -4.045,2.411 c 0,0 -0.661,-1.118 -1.791,-3.187 -1.13,-2.069 -2.776,-5.122 -4.77,-9.042 -2.543,-5 -5.68,-11.42 -9.114,-19.017 a 358.751,358.751 0 0 1 -82.745,10.366 0.47,0.47 0 0 1 -0.483,-0.472 z"
         transform="translate(-145.442,-44.475)"
         opacity="0.7"
         fill="url(#b)"
         id="path46"
         style="fill:url(#linearGradient138)" />
    </g>
    <g
       transform="translate(384.024,149.392)"
       id="g48">
      <path
         d="m 409.969,204.938 v -0.092 c 2.021,-69.2 -18.59,-89.838 -37.416,-73.7 -8.337,7.145 -11.406,18.611 -8.623,29.233 a 28.892,28.892 0 0 1 0.948,11.132 14.009,14.009 0 0 1 -6.619,10.578 28.208,28.208 0 0 0 -13.055,20.393 q -0.82,6.875 -1.3,14.3 c -5.3,82.436 -26.522,132.218 -32.466,152 a 6.6,6.6 0 0 0 10.257,7.215 c 13.892,-10.287 50.974,-41.448 72.432,-94.56 a 29.149,29.149 0 0 0 -0.786,-23.108 21.428,21.428 0 0 1 -1.539,-10.947 c 0.9,-10.416 6.514,-18.682 12.451,-26.48 a 27.745,27.745 0 0 0 5.716,-15.964 z"
         transform="translate(-311.138,-125.952)"
         opacity="0.7"
         fill="url(#n)"
         id="path47"
         style="fill:url(#linearGradient139)" />
      <path
         d="m 376.8,211.117 32.783,-13.094 c 0,-0.189 0.005,-0.383 0.007,-0.571 l -32.72,13.068 c 2.282,-19.21 3.77,-39.6 4.457,-61.065 l 21.006,-5.779 c -0.066,-0.168 -0.133,-0.329 -0.2,-0.494 l -20.791,5.72 q 0.352,-11.206 0.409,-22.8 c -0.177,0.03 -0.354,0.069 -0.531,0.106 -0.124,21.959 -1.034,42.05 -2.542,60.389 L 363.653,174.62 c -0.06,0.177 -0.122,0.352 -0.188,0.525 l 15.158,12.086 a 574.83,574.83 0 0 1 -8.711,63.819 l -27.16,-25.525 q -0.027,0.336 -0.056,0.672 l 27.093,25.462 c -6.192,31.092 -14.057,54.306 -21.409,71.1 -0.438,1 -0.877,1.981 -1.316,2.947 l -15.977,-24.282 c -0.056,0.238 -0.111,0.472 -0.167,0.707 l 15.888,24.143 c -14.788,32.383 -29.8,45.982 -33.932,49.307 0.135,0.118 0.275,0.232 0.418,0.339 3.009,-2.438 11.2,-9.842 20.876,-25.043 l 14.585,0.253 0.145,-0.154 c 0.095,-0.1 0.19,-0.2 0.285,-0.3 l 0.057,-0.061 -14.741,-0.255 a 205.444,205.444 0 0 0 14.336,-27.321 304.952,304.952 0 0 0 13.639,-38.4 l 31.614,-4.468 c 0.074,-0.188 0.15,-0.376 0.224,-0.564 l -31.676,4.476 a 436.205,436.205 0 0 0 10.3,-46.139 q 2.204,-12.985 3.862,-26.827 z"
         transform="translate(-310.624,-125.906)"
         opacity="0.7"
         fill="url(#n)"
         id="path48"
         style="fill:url(#n)" />
    </g>
    <path
       d="m 503.248,294.076 c 6.666,-12.929 8.72,-22.545 7.5,-29.071 -0.012,-0.057 -0.023,-0.113 -0.034,-0.168 h -0.005 c -1.433,-7.24 -6.942,-10.617 -14.64,-10.467 l 0.006,-0.013 c -0.174,0 -0.351,0.012 -0.527,0.018 v 0 a 37.084,37.084 0 0 0 -9.945,1.93 c -9.757,3.189 -15.705,9.037 -15.918,14.853 a 10.385,10.385 0 0 1 -3.719,7.685 l -0.15,0.126 a 18.213,18.213 0 0 1 -7.262,3.272 c -7.965,1.9 -14.538,5.472 -17.734,9.862 q -2.606,3.579 -5.04,7.47 c -26.976,43.234 -60.241,68.064 -71.115,78.107 -1.522,1.405 -1.258,2.8 0.017,3.766 h -0.008 c 0.1,0.073 0.2,0.141 0.3,0.209 h 0.006 a 9.7,9.7 0 0 0 7.415,0.569 326.978,326.978 0 0 0 32.579,-11.166 h 0.005 l 0.177,-0.071 0.35,-0.14 0.07,-0.03 v 0 c 18.545,-7.492 40.812,-18.45 60.249,-33.478 0.258,-0.2 0.5,-0.4 0.742,-0.6 h 0.03 l 0.361,-0.282 h -0.066 c 4.017,-3.536 5.477,-7.609 4.356,-11.393 -0.47,-1.583 -0.114,-3.522 1.47,-5.9 3.627,-5.447 11.118,-9.421 18.788,-13.126 4.53,-2.187 7.935,-4.988 9.64,-8.036 l 0.027,-0.049 c 0.685,-1.227 1.324,-2.421 1.933,-3.593 0.049,-0.095 0.1,-0.19 0.149,-0.284 z"
       transform="translate(88.387,61.368)"
       fill="#0b0244"
       opacity="0.05"
       id="path49" />
    <g
       transform="translate(427.675,132)"
       id="g51">
      <path
         d="m 499.129,218.291 0.02,-0.119 c 13.987,-88.543 -9.086,-118.437 -35.919,-100.813 -11.884,7.806 -17.713,22.025 -15.888,36.125 a 37.422,37.422 0 0 1 -0.615,14.452 18.136,18.136 0 0 1 -10.241,12.5 36.526,36.526 0 0 0 -20.125,24.042 q -2.184,8.693 -4.026,18.146 c -20.374,105 -55.828,165.44 -66.72,189.867 a 8.55,8.55 0 0 0 11.985,10.95 c 19.534,-10.923 72.288,-44.839 108.591,-109.518 a 37.741,37.741 0 0 0 2.794,-29.807 c -1.2,-3.834 -1.429,-8.537 -0.175,-14.313 2.873,-13.23 11.443,-22.92 20.352,-31.96 a 35.921,35.921 0 0 0 9.967,-19.552 z"
         transform="translate(-344.836,-112.525)"
         opacity="0.7"
         fill="url(#p)"
         id="path50"
         style="fill:url(#linearGradient140)" />
      <path
         d="m 455.671,220.905 44.259,-11.42 c 0.034,-0.242 0.07,-0.491 0.1,-0.732 l -44.17,11.4 Q 465,183.7 471.639,142.456 l 27.93,-3.963 c -0.057,-0.225 -0.117,-0.443 -0.174,-0.666 l -27.643,3.922 q 2.295,-14.33 4.277,-29.208 c -0.232,0.009 -0.465,0.031 -0.7,0.049 -3.773,28.181 -8.25,53.836 -13.206,77.14 L 444.8,171.874 c -0.106,0.219 -0.216,0.433 -0.328,0.644 l 17.479,18.016 a 744.218,744.218 0 0 1 -21.7,80.528 l -30.678,-37.254 c -0.061,0.286 -0.122,0.57 -0.181,0.855 L 440,271.825 c -13.072,38.912 -26.994,67.429 -39.2,87.794 -0.727,1.214 -1.452,2.4 -2.175,3.569 L 382.1,329.372 c -0.11,0.3 -0.22,0.587 -0.33,0.881 l 16.43,33.623 c -24.323,39.154 -45.841,54.149 -51.7,57.739 q 0.231,0.26 0.482,0.5 c 4.266,-2.635 16,-10.8 30.935,-28.726 l 18.69,2.725 0.211,-0.174 0.417,-0.345 0.083,-0.07 -18.89,-2.754 a 265.84,265.84 0 0 0 22.909,-32.726 394.881,394.881 0 0 0 23.839,-47.07 l 41.335,-0.532 c 0.127,-0.229 0.255,-0.457 0.381,-0.688 l -41.417,0.534 a 564.464,564.464 0 0 0 20.821,-57.56 q 4.97,-16.32 9.375,-33.824 z"
         transform="translate(-344.344,-112.52)"
         opacity="0.7"
         fill="url(#p)"
         id="path51"
         style="fill:url(#p)" />
    </g>
    <g
       transform="translate(153.648,134.137)"
       id="g126">
      <g
         transform="translate(0,144.989)"
         id="g56">
        <path
           d="m 318.872,452.683 a 12.585,12.585 0 0 1 -6.174,-1.42 v 0 L 135.886,349.181 a 4.515,4.515 0 0 1 -2.593,-3.819 c 0,-1.776 1.3,-3.547 3.578,-4.86 L 311.709,239.561 c 4.172,-2.408 10.524,-2.663 14.155,-0.569 l 176.812,102.084 a 4.512,4.512 0 0 1 2.593,3.817 c 0,1.775 -1.3,3.547 -3.578,4.859 L 326.856,450.694 a 16.413,16.413 0 0 1 -7.984,1.989 z m -5.737,-2.176 c 3.391,1.956 9.347,1.7 13.283,-0.569 L 501.255,349 c 1.995,-1.153 3.14,-2.648 3.14,-4.1 a 3.685,3.685 0 0 0 -2.156,-3.061 L 325.427,239.749 c -3.391,-1.957 -9.349,-1.7 -13.281,0.569 l -174.837,100.94 c -2,1.154 -3.141,2.649 -3.141,4.1 a 3.688,3.688 0 0 0 2.156,3.062 l 176.812,102.086 z"
           transform="translate(-133.293,-222.715)"
           fill="#42e8e0"
           id="path52" />
        <path
           d="m 504.731,331.3 -10.665,0.006 -168.521,-97.3 c -3.517,-2.03 -9.66,-1.776 -13.719,0.569 l -167.834,96.9 -10.36,0.005 v 8.508 h 0.008 a 4.058,4.058 0 0 0 2.36,3.453 l 176.817,102.084 c 3.516,2.03 9.658,1.776 13.718,-0.569 L 501.372,344.014 c 2.277,-1.315 3.415,-3.008 3.356,-4.6 v 0 z"
           transform="translate(-133.193,-224.173)"
           fill="url(#r)"
           id="path53"
           style="fill:url(#r)" />
        <path
           d="M 312.818,438.989 136,336.905 c -3.516,-2.03 -3.075,-5.577 0.986,-7.921 L 311.827,228.042 c 4.06,-2.343 10.2,-2.6 13.719,-0.569 l 176.812,102.084 c 3.516,2.03 3.075,5.577 -0.986,7.921 L 326.536,438.42 c -4.06,2.343 -10.203,2.599 -13.718,0.569 z"
           transform="translate(-133.193,-226.103)"
           fill="url(#s)"
           id="path54"
           style="fill:url(#linearGradient141)" />
        <path
           d="m 310.334,430 -164.6,-95.031 c -3.273,-1.89 -2.863,-5.192 0.917,-7.373 l 162.76,-93.97 c 3.78,-2.181 9.5,-2.418 12.771,-0.529 l 164.6,95.031 c 3.273,1.89 2.863,5.191 -0.917,7.373 l -162.76,93.97 c -3.779,2.177 -9.497,2.414 -12.771,0.529 z"
           transform="translate(-130.271,-224.416)"
           fill="#180d5b"
           opacity="0.1"
           id="path55" />
        <path
           d="M 501.371,312.233 326.534,413.175 c -4.06,2.345 -10.2,2.6 -13.718,0.569 L 136,311.662 a 4.284,4.284 0 0 1 -2.328,-2.966 c -0.228,1.469 0.529,2.906 2.328,3.944 l 176.816,102.083 c 3.516,2.03 9.658,1.775 13.718,-0.57 L 501.371,313.212 c 2.448,-1.415 3.571,-3.264 3.314,-4.956 -0.218,1.402 -1.331,2.833 -3.314,3.977 z"
           transform="translate(-133.192,-201.837)"
           fill="#ffffff"
           id="path56" />
      </g>
      <path
         d="m 302.167,338.041 h 168.046 l 3.479,-14.171 -166.962,-96.4 c -3.517,-2.03 -9.66,-1.775 -13.719,0.569 l -95.68,55.241 83.841,49.066 a 41.574,41.574 0 0 0 20.995,5.695 z"
         transform="translate(-114.378,-81.114)"
         fill="#180d5b"
         opacity="0.1"
         id="path57" />
      <g
         transform="translate(178.754)"
         id="g63">
        <path
           d="m 272.253,116.645 4.014,-2.31 v 0.023 a 2,2 0 0 1 1.973,0.179 l 172.3,99.643 a 7.473,7.473 0 0 1 3.115,5.964 l -0.189,146.029 a 2.719,2.719 0 0 1 -1.105,2.513 l 0.019,0.01 -4.003,2.304 -0.284,-14.5 -160.75,-92.964 a 7.471,7.471 0 0 1 -3.115,-5.964 L 284.41,123.5 c -0.269,0.846 -0.473,1.461 -0.5,1.482 -0.101,0.06 -11.657,-8.337 -11.657,-8.337 z"
           transform="translate(-271.002,-114.175)"
           fill="url(#t)"
           id="path58"
           style="fill:url(#t)" />
        <path
           d="m 419.2,196.291 -25.344,9.863 -5.228,-3.023 28.093,-11.447 a 7.759,7.759 0 0 1 2.479,4.607 z"
           transform="translate(-236.627,-91.281)"
           fill="url(#u)"
           id="path59"
           style="fill:url(#u)" />
        <path
           d="m 274.4,270.637 172.3,99.643 c 1.723,1 3.121,-0.06 3.122,-2.358 l 0.189,-146.028 a 7.475,7.475 0 0 0 -3.117,-5.965 L 274.6,116.287 c -1.723,-1 -3.121,0.06 -3.122,2.358 l -0.189,146.028 a 7.475,7.475 0 0 0 3.111,5.964 z"
           transform="translate(-271.287,-113.662)"
           fill="url(#v)"
           id="path60"
           style="fill:url(#v)" />
        <path
           d="m 446.712,215.928 -172.3,-99.643 a 1.824,1.824 0 0 0 -2.495,0.244 2.18,2.18 0 0 1 1.665,0.31 l 172.3,99.643 a 7.472,7.472 0 0 1 3.118,5.963 l -0.189,146.029 a 3.279,3.279 0 0 1 -0.627,2.114 c 0.873,-0.234 1.456,-1.188 1.457,-2.667 l 0.189,-146.028 a 7.475,7.475 0 0 0 -3.118,-5.965 z"
           transform="translate(-271.101,-113.661)"
           fill="#ffffff"
           id="path61" />
        <path
           d="m 273.3,266.293 173.259,100.2 0.218,-146.374 -173.259,-100.2 z"
           transform="translate(-270.693,-112.478)"
           fill="#24126a"
           id="path62" />
        <path
           d="m 351.725,245.353 a 6.136,6.136 0 0 1 -3.023,-0.918 l -15.4,-8.893 a 14.377,14.377 0 0 1 -6.494,-11.249 v -4.461 a 13.408,13.408 0 0 0 -6.06,-10.493 L 305.777,200.7 c -1.536,-0.889 -2.956,-1.044 -4,-0.44 -1.044,0.604 -1.621,1.912 -1.621,3.685 v 28.434 c 0,2.1 -0.729,3.676 -2.057,4.442 -1.328,0.766 -3.057,0.61 -4.874,-0.439 l -17.642,-10.186 0.437,-0.757 17.642,10.186 c 1.535,0.886 2.956,1.044 4,0.439 1.044,-0.605 1.62,-1.912 1.62,-3.685 v -28.438 c 0,-2.1 0.731,-3.676 2.057,-4.442 1.326,-0.766 3.057,-0.61 4.875,0.44 l 14.971,8.643 a 14.375,14.375 0 0 1 6.5,11.249 v 4.461 a 13.412,13.412 0 0 0 6.057,10.493 l 15.4,8.893 c 1.536,0.885 2.957,1.04 4,0.439 1.043,-0.601 1.621,-1.912 1.621,-3.685 V 208.1 c 0,-2.1 0.731,-3.676 2.057,-4.442 1.326,-0.766 3.058,-0.61 4.874,0.44 l 17.129,9.889 c 1.536,0.886 2.956,1.041 4,0.44 1.044,-0.601 1.621,-1.913 1.621,-3.687 v -16.728 c 0,-2.1 0.731,-3.676 2.057,-4.443 1.326,-0.767 3.058,-0.61 4.874,0.44 L 409.2,200.3 a 14.379,14.379 0 0 1 6.5,11.25 13.41,13.41 0 0 0 6.059,10.493 l 19.659,11.351 -0.437,0.757 -19.664,-11.351 a 14.375,14.375 0 0 1 -6.5,-11.249 13.416,13.416 0 0 0 -6.058,-10.494 l -17.824,-10.29 c -1.538,-0.886 -2.957,-1.041 -4,-0.44 -1.043,0.601 -1.621,1.913 -1.621,3.687 v 16.725 c 0,2.1 -0.729,3.676 -2.056,4.443 -1.327,0.767 -3.058,0.609 -4.876,-0.44 l -17.129,-9.889 c -1.536,-0.889 -2.956,-1.044 -4,-0.44 -1.044,0.604 -1.621,1.912 -1.621,3.685 v 32.336 c 0,2.1 -0.729,3.676 -2.056,4.442 a 3.664,3.664 0 0 1 -1.851,0.477 z"
           transform="translate(-270.018,-92.047)"
           fill="url(#w)"
           style="isolation:isolate;mix-blend-mode:lighten;fill:url(#w)"
           id="path63" />
      </g>
      <g
         transform="translate(174.067,120.399)"
         id="g84">
        <path
           d="m 295.708,296.288 a 17.219,17.219 0 0 0 -0.842,3.447 14.927,14.927 0 0 0 2.128,3.38 16.138,16.138 0 0 0 3.567,3.137 9.942,9.942 0 0 1 2.127,1.507 0.906,0.906 0 0 0 0.439,-0.153 4.27,4.27 0 0 0 -0.531,-2.824 c -0.8,-0.921 0.4,-2.289 0.4,-2.289 l -2.061,-5.375 z"
           transform="translate(-259.637,-180.782)"
           fill="#fcd1c5"
           id="path64" />
        <path
           d="m 314.821,342.19 a 38.006,38.006 0 0 1 -6.338,0.858 c -3.114,0.106 -11.608,1.712 -11.443,4.755 0.165,3.043 4.513,7.442 10.03,8.1 5.517,0.658 12.642,-0.85 16.241,-0.746 a 4.97,4.97 0 0 0 4.8,-6.824 c -1.328,-3.379 -13.29,-6.143 -13.29,-6.143 z"
           transform="translate(-258.994,-167.223)"
           fill="#160a5b"
           id="path65" />
        <path
           d="m 331.328,338.591 c 0,0 1.14,1.849 0.535,2.973 -0.605,1.124 -2.214,3.929 -7.2,1.19 -4.974,-2.729 -14.638,-6.657 -14.638,-6.657 0,0 -5.543,-2.905 -5.178,-6.3 0.363,-3.382 5.51,-2.85 5.51,-2.85 z"
           transform="translate(-256.693,-171.736)"
           fill="#160a5b"
           id="path66" />
        <path
           d="m 286.769,242.487 a 15.543,15.543 0 0 1 -4.742,-0.613 c -1.45,-0.654 -5.663,-2.038 -5.924,-2.176 -0.261,-0.138 -2.584,-0.291 -3.646,-0.974 a 0.9,0.9 0 0 0 -0.25,1.54 5.825,5.825 0 0 0 2.712,1.275 l 1.668,0.973 c 0,0 -3.38,1.735 -3.685,1.864 -0.305,0.129 -3.136,2.284 -3.422,2.417 -0.286,0.133 -1.548,1.117 -1.058,1.988 0,0 0.049,0.2 0.68,0.332 0,0 -1.808,0.823 -1.363,1.712 0.445,0.889 1.593,0.505 1.593,0.505 0,0 0.435,1.6 2.619,0.359 0,0 0.254,1.981 5.1,-0.088 a 12.917,12.917 0 0 1 3.389,-0.416 15.7,15.7 0 0 0 7.423,-2.38 c 2.084,-1.467 -1.094,-6.318 -1.094,-6.318 z"
           transform="translate(-267.668,-197.785)"
           fill="#fcd1c5"
           id="path67" />
        <path
           d="m 279.448,250.237 a 15.7,15.7 0 0 0 7.422,-2.38 c 1.4,-0.988 0.42,-3.51 -0.37,-5.052 -0.987,-0.479 -1.856,-0.872 -1.856,-0.872 0,0 0.146,4.8 0.039,5.521 -0.107,0.721 -4.444,1.578 -7.224,1.986 a 56.761,56.761 0 0 0 -6.434,1.486 c 0.215,0.438 1.145,1.389 5.035,-0.273 a 12.916,12.916 0 0 1 3.388,-0.416 z"
           transform="translate(-266.677,-196.837)"
           fill="#e2b1a6"
           id="path68" />
        <path
           d="m 320.8,234.43 c 0,0 -6.85,1.2 -9.182,1.943 -2.262,0.72 -21.894,4.605 -29.084,6.365 a 1.257,1.257 0 0 0 -0.915,0.948 2.689,2.689 0 0 0 -0.049,1.2 c 0.2,0.812 0.891,8.942 4.88,7.613 a 55.912,55.912 0 0 1 7.53,-1.505 c 2.81,-0.37 14.811,-1.292 14.811,-1.292 l 20.3,-11.619 z"
           transform="translate(-263.576,-199.053)"
           fill="#4846a5"
           id="path69" />
        <path
           d="m 300.5,299.137 c 0,0 1.814,22.4 6.276,30.862 4.516,8.556 5.512,24.1 6.425,27.06 0.913,2.96 3.836,7.236 8.543,8.152 4.707,0.916 5.545,-2.178 5.354,-4.04 -0.191,-1.862 -1.439,-4.871 -1.413,-6.89 a 20.682,20.682 0 0 1 0.624,-3.881 c 0,0 5.385,1.566 6.3,-2.492 a 11.054,11.054 0 0 1 -0.47,-1.792 c -0.058,-0.606 0.816,-15.372 0.99,-17.168 a 73.921,73.921 0 0 0 -2.008,-16.335 c -1.4,-4.785 -0.671,-14.971 -0.671,-14.971 l -15.585,-2.273 z"
           transform="translate(-257.972,-181.053)"
           fill="#24126a"
           id="path70" />
        <path
           d="m 320.771,298.623 a 17.058,17.058 0 0 1 -1.693,6.429 c 0,0 -0.219,11.868 -1.591,17.848 0,0 1.758,11.99 2.94,15.757 1.189,3.788 0.86,11.138 0.86,11.138 a 5.364,5.364 0 0 0 1.5,0.258 c 0.883,0.035 1.269,-14.542 -0.036,-17.131 -1.305,-2.589 -2.087,-14.042 -1.5,-17.541 0.586,-3.479 0.626,-13.484 1.342,-15.247 a 2.2,2.2 0 0 0 -0.793,-2.711 z"
           transform="translate(-252.953,-180.447)"
           fill="#160a5b"
           id="path71" />
        <path
           d="m 312.081,234.574 c 0,0 -4.684,3.247 -4.551,8.982 l 3.444,-0.68 c 0,0 -0.904,-6.36 1.107,-8.302 z"
           transform="translate(-255.895,-199.011)"
           fill="#160a5b"
           id="path72" />
        <path
           d="m 314.311,304.018 c 10.342,0.4 16.017,-4.031 16.017,-4.031 0.053,-1.418 0.119,-2.343 0.119,-2.343 l -15.585,-2.273 -14.362,3.766 c 0,0 0.36,4.435 1.153,10.105 2.539,0.288 5.139,-5.779 5.139,-5.779 l 7.1,0.5 c 0,0 -9.938,-0.343 0.419,0.055 z"
           transform="translate(-257.972,-181.053)"
           fill="#160a5b"
           id="path73" />
        <path
           d="m 302.971,319.653 c 0,0 22.354,9.16 33.6,-7.762 a 2.986,2.986 0 0 0 0.472,-1.675 L 337,306.229 a 4.127,4.127 0 0 1 0.253,-1.477 v 0 a 6.264,6.264 0 0 0 0.3,-3.187 c -0.74,-4.478 -2.747,-16.7 -3.207,-20.105 -0.562,-4.157 2.053,-20.806 6,-28.009 3.9,-7.117 -5.307,-23.488 -5.307,-23.488 a 6.215,6.215 0 0 0 -6.926,-2.619 c 0,0 4.342,3.149 1.86,6.35 -2.5,3.22 -9.788,5.7 -9.788,5.7 0,0 -13.524,6.688 -18.247,15 a 34.581,34.581 0 0 0 -1.867,9.8 c -0.227,5.531 0.187,18.769 -0.075,20.6 -0.262,1.831 -1.162,14.344 -1.1,14.927 0.062,0.583 4.075,19.932 4.075,19.932 z"
           transform="translate(-258.447,-201.217)"
           fill="#453c9e"
           id="path74" />
        <path
           d="m 308.85,311.555 c 0,0 13.99,-35.1 13.621,-48.023 -0.363,-12.669 -19.992,25.235 -19.992,25.235 l -0.439,20.892 a 41.133,41.133 0 0 0 6.81,1.896 z"
           transform="translate(-257.516,-191.222)"
           fill="#24126a"
           id="path75" />
        <path
           d="m 304.324,272.506 a 57.376,57.376 0 0 0 0.946,-8.748 c 0.142,-5.093 1.736,-13.546 11.064,-11.938 13.147,2.266 7.14,20.393 5.636,23.541 -1.51,3.163 -7.518,17.39 -7.836,18.2 -0.3,0.756 -9.651,18.39 -12.945,22.6 a 0.81,0.81 0 0 1 -1.18,0.135 c -1.292,-1.1 -4.2,-3.713 -4.557,-5.356 -0.464,-2.115 1.54,-9.768 1.54,-9.768 0,0 5.413,-19.213 5.859,-20.109 0.334,-0.679 0.609,-3.857 1.473,-8.557 z"
           transform="translate(-259.483,-193.975)"
           fill="#4846a5"
           id="path76" />
        <path
           d="m 313.787,242.78 a 4.664,4.664 0 0 0 -3.443,-2.688 c -2.434,-0.286 -3.806,-0.983 -4.036,-1.885 a 17.088,17.088 0 0 0 -0.791,-3.337 24.657,24.657 0 0 1 -1,-4.72 c 0.01,-0.08 -1.837,-0.668 -1.915,-1.485 -0.078,-0.817 0.934,-3.707 0.832,-3.934 a 7.331,7.331 0 0 1 -0.915,-3.417 17.032,17.032 0 0 1 1.143,-5.086 c 0.768,-1.687 6.145,-11.965 19.558,-6.354 13.5,5.645 2.912,16.855 4.1,24.243 0,0 1.172,1.569 -1.093,4.159 -2.265,2.59 -8.71,3.07 -12.44,4.504 z"
           transform="translate(-257.381,-206.796)"
           fill="#fcd1c5"
           id="path77" />
        <path
           d="m 325.185,233.924 c 2.266,-2.591 1.093,-4.159 1.093,-4.159 a 10.145,10.145 0 0 1 0.1,-3.276 l -5.334,0.918 c 0,0 -7.724,-7.11 -7.236,-3.363 0.491,3.77 -1.429,4.384 -1.429,4.384 l 1.574,2.07 c 0.4,0.531 0.146,1.144 -0.2,1.714 -2.311,3.8 -7.733,2.554 -7.746,2.554 a 7.779,7.779 0 0 0 3.306,0.973 4.664,4.664 0 0 1 3.443,2.688 c 3.725,-1.435 10.154,-1.9 12.429,-4.503 z"
           transform="translate(-256.345,-202.443)"
           fill="#e2b1a6"
           id="path78" />
        <g
           transform="translate(45.438)"
           id="g80">
          <path
             d="m 303.064,212.6 c 0,0 -0.99,2.755 0.521,3.948 1.511,1.193 2.881,2.323 2.881,2.323 l -0.066,3.507 a 2.6,2.6 0 0 0 0.394,1.429 l 1.872,2.988 a 3.568,3.568 0 0 1 0.543,1.935 l -0.017,1.428 a 0.822,0.822 0 0 0 0.707,0.829 l 0.5,0.065 a 0.814,0.814 0 0 0 0.906,-0.716 l 0.245,-1.981 c 0,0 1.036,-1.576 3.215,0.363 l 1.969,0.847 a 2.129,2.129 0 0 1 1.175,1.271 c 0.526,1.534 1.655,4.561 2.534,5.074 1.187,0.7 5.878,-1.617 6.521,-2.665 0.643,-1.048 2.359,-8.086 3.4,-11.443 1.04,-3.339 0.655,-11.676 -9.349,-14 -9.98,-2.324 -16.515,1.805 -17.951,4.798 z"
             transform="translate(-302.745,-207.12)"
             fill="#aa8383"
             id="path79" />
          <path
             d="m 326.133,230.354 c 0.641,-1.045 2.359,-8.086 3.4,-11.443 a 24.628,24.628 0 0 1 -8.972,3.184 c -5.055,0.677 -14.951,-5.178 -14.951,-5.178 l -0.049,2.57 a 2.61,2.61 0 0 0 0.4,1.429 l 1.872,2.988 a 3.568,3.568 0 0 1 0.543,1.935 l -0.017,1.428 a 0.822,0.822 0 0 0 0.707,0.829 l 0.5,0.065 a 0.814,0.814 0 0 0 0.905,-0.716 l 0.245,-1.981 c 0,0 1.036,-1.576 3.215,0.363 l 2.849,1.225 c 0,0 1.644,5.272 2.829,5.967 1.185,0.695 5.882,-1.619 6.524,-2.665 z"
             transform="translate(-301.912,-204.226)"
             fill="#936d6d"
             id="path80" />
        </g>
        <path
           d="m 325.044,227.551 c 0,0 3.832,2.451 1.823,5.8 -2.019,3.365 -16.206,9.166 -16.919,10.046 0,0 -0.464,-5.065 1.434,-6.745 0,0 10.824,-1.913 12.555,-4.624 1.731,-2.711 1.107,-4.477 1.107,-4.477 z"
           transform="translate(-255.195,-201.085)"
           fill="#f0f6ff"
           id="path81" />
        <path
           d="m 324.332,227.551 c 0,0 0.615,1.773 -1.108,4.473 -1.308,2.052 -7.82,3.645 -10.916,4.3 v 0 c 0,0 1.133,0.665 2.987,3.937 4.371,-2.161 9.68,-4.948 10.859,-6.912 2.009,-3.349 -1.822,-5.798 -1.822,-5.798 z"
           transform="translate(-254.483,-201.085)"
           fill="#c4ccd6"
           id="path82" />
        <path
           d="m 321.239,254.057 c 3.429,11.042 -6.033,27.924 -7.435,32.849 -1.415,4.966 -15.626,27.768 -15.629,27.773 0.382,0.348 0.733,0.655 1.009,0.89 a 0.81,0.81 0 0 0 1.18,-0.135 c 3.294,-4.2 12.647,-21.839 12.945,-22.6 0.317,-0.807 6.325,-15.034 7.836,-18.2 1.206,-2.518 5.318,-14.727 0.094,-20.577 z"
           transform="translate(-258.658,-193.256)"
           fill="#24126a"
           id="path83" />
        <path
           d="m 330.268,235.927 c 0,0 -6.336,3.468 -9.419,5.029 -3.083,1.561 -6.472,3.659 -6.472,3.659 l -1.15,-1.179 -1.462,3.045 a 41.994,41.994 0 0 0 -7.152,5.14 24.336,24.336 0 0 0 -4.31,6.165 c 0,0 6.132,-7.7 10.9,-9.948 l 1.285,-0.618 0.764,-2.416 1.139,1.237 c 0,0 13.923,-8.021 15.877,-10.114 z"
           transform="translate(-258.029,-198.611)"
           fill="#24126a"
           id="path84" />
      </g>
      <g
         transform="translate(86.097,60.599)"
         id="g109">
        <path
           d="m 245.963,236.6 c 0,0 2.359,0.4 3.223,-0.039 a 8.171,8.171 0 0 1 5.733,0.2 c 2.617,0.934 2.4,0.791 3.433,0.894 a 11.233,11.233 0 0 1 3.254,0.552 c 0.545,0.346 1.583,1 0.622,2.373 -0.961,1.373 -4.555,0.083 -5.14,-0.026 -0.585,-0.109 -1.225,0.929 -0.935,1.86 0.29,0.931 5.71,6.859 6.56,7.45 0.85,0.591 4.512,3.038 4.671,4 0.159,0.962 -0.045,1.1 -0.045,1.1 0,0 1.067,0.966 0.69,1.861 -0.377,0.895 -2.04,-0.477 -2.347,-0.271 0,0 0.269,1 -0.136,1.18 a 7.3,7.3 0 0 1 -3.067,-1.027 c 0,0 -0.276,0.767 -1.633,-0.026 -1.357,-0.793 -6.552,-3.745 -7.161,-4.3 a 36.627,36.627 0 0 0 -3.5,-2.956 28.577,28.577 0 0 1 -3.018,-2.9 18.092,18.092 0 0 0 -5.181,-2.548 c -1.232,-0.234 3.977,-7.377 3.977,-7.377 z"
           transform="translate(-187.341,-138.747)"
           fill="#fcd1c5"
           id="path85" />
        <path
           d="m 250.1,247.21 c -1.193,-2.18 -5.2,-3.869 -5.2,-3.869 0.271,-1.775 2.823,-6.675 2.823,-6.675 v 0 a 13.727,13.727 0 0 1 -1.766,-0.166 c 0,0 -5.209,7.139 -3.977,7.376 a 18.091,18.091 0 0 1 5.181,2.548 28.58,28.58 0 0 0 3.018,2.9 36.632,36.632 0 0 1 3.5,2.956 c 0.609,0.557 5.806,3.512 7.161,4.3 1.355,0.788 1.633,0.026 1.633,0.026 a 7.274,7.274 0 0 0 3.067,1.026 c 0.405,-0.183 0.136,-1.179 0.136,-1.179 a 24.254,24.254 0 0 0 -3.389,-1.552 C 260.575,254.3 251.3,249.4 250.1,247.21 Z"
           transform="translate(-187.341,-138.642)"
           fill="#e2b1a6"
           id="path86" />
        <path
           d="m 242.935,230.433 a 21.111,21.111 0 0 1 0.325,4.832 c -0.185,2.174 -4.543,-0.668 -4.38,-1.044 0.163,-0.376 2.069,-3.65 2.069,-3.65 z"
           transform="translate(-188.204,-140.434)"
           fill="#fcd1c5"
           id="path87" />
        <path
           d="m 227.336,179.853 c 0,0 2.416,-0.11 5.358,4.719 2.833,4.65 7.815,21.293 10.426,27.676 a 8.372,8.372 0 0 1 0.507,1.76 c 0.848,4.979 4.828,28.406 5.009,31.224 a 22.4,22.4 0 0 1 -4.982,2.516 l -4.282,-1.42 -4.216,-42.469 -6.833,-22.426 z"
           transform="translate(-191.612,-155.375)"
           fill="#24126a"
           id="path88" />
        <path
           d="m 216.879,287.728 c 0,0 -0.819,3.929 -0.372,4.691 0.447,0.762 5.557,6.534 6.1,7.31 0.543,0.776 3.174,5.5 8.013,6.654 4.839,1.154 8.143,0.855 8.8,-1.421 0.657,-2.276 -2.189,-6.039 -3.507,-7.255 -1.318,-1.216 -6.845,-7.8 -7.856,-8.752 a 4.732,4.732 0 0 0 -2.473,-1.1 l -6.311,1.1 z"
           transform="translate(-194.85,-123.511)"
           fill="#160a5b"
           id="path89" />
        <path
           d="m 234.237,278.653 c 0,0 4.829,1.872 7.354,2.508 2.525,0.636 8.548,5.136 8.482,7.4 -0.066,2.264 -3.031,3.829 -6.043,3.606 a 16.957,16.957 0 0 1 -7.171,-2.657 17.706,17.706 0 0 0 -5.114,-2.409 c -2.464,-0.767 -6.434,-1.144 -7.09,-2.459 a 13.054,13.054 0 0 1 -0.749,-4.023 z"
           transform="translate(-192.626,-126.191)"
           fill="#160a5b"
           id="path90" />
        <path
           d="m 227,290 c 0.036,-0.232 0.2,-0.622 0.232,-0.784 a 55.23,55.23 0 0 0 0.013,-6.052 l -1.065,1.456 c 0,0 0.749,4.863 2.2,12.467 0.368,1.929 1.378,3.919 1.527,5.012 0.442,3.255 -1.491,3.891 -1.491,3.891 -3.925,2.953 -7.277,1.17 -8.483,0.22 -1.206,-0.95 -1.614,-2.474 -3.286,-7.955 -1.659,-5.442 -3.1,-16.941 -2.745,-19.674 a 115.677,115.677 0 0 0 1.15,-13.775 c -0.044,-4.6 -3.582,-19.305 -3.582,-19.305 l 14.634,-2.841 9.989,-5.172 7.622,1.149 c 0,0 0.965,-3.22 1.972,6.8 1.019,10.167 -5.141,28.159 -5.141,28.159 -1.623,8.908 -2.039,19.152 -2.961,20.541 -0.922,1.389 -4.568,4.669 -7.939,2.119 a 8.857,8.857 0 0 1 -1.7,-1.46 z"
           transform="translate(-196.298,-138.352)"
           fill="#24126a"
           id="path91" />
        <path
           d="m 222.826,283.508 a 178.349,178.349 0 0 0 7.095,-25.8 c 2.241,-12.476 6.127,-14.231 7.741,-16.471 a 21.427,21.427 0 0 0 3.72,1.334 2.083,2.083 0 0 0 0.413,0.036 c 1.073,-0.034 -5.38,8 -6.539,10.06 -1.159,2.06 -7.834,19.747 -8.3,22.186 -0.466,2.439 -0.94,19.5 -0.4,20.479 0.54,0.979 -1.846,-0.737 -1.846,-0.737 0,0 -1.47,-3.768 -1.884,-11.087 z"
           transform="translate(-192.944,-137.242)"
           fill="#160a5b"
           id="path92" />
        <path
           d="m 238.669,237.872 -2.574,-0.387 -9.989,5.172 -14.633,2.843 c 0,0 3.538,14.7 3.582,19.305 a 115.4,115.4 0 0 1 -1.15,13.775 c -0.356,2.709 1.086,14.232 2.745,19.674 0.725,2.374 1.212,4.007 1.631,5.172 a 4.351,4.351 0 0 0 3,3.592 c 0,0 -5.737,-17.77 -5.233,-28.163 0.5,-10.248 1.966,-18.776 1.7,-20.76 0,0 16.665,-5.123 19.788,-15.879 0.487,-1.678 0.856,-3.116 1.133,-4.344 z"
           transform="translate(-196.298,-138.352)"
           fill="#160a5b"
           id="path93" />
        <path
           d="m 213.162,182.167 a 4.95,4.95 0 0 0 -1.442,2.012 c -0.255,1.018 -1.72,4.63 -1.72,4.63 0,0 -6.968,9.246 -8.222,12.078 a 25.484,25.484 0 0 0 -1.666,4.969 l 18.451,22.721 c 0,0 -6.459,22.274 -4.657,30.4 1.823,8.218 4.2,11.279 7.1,12.166 2.9,0.887 18.428,-5.5 19.5,-13.633 1.06,-8.043 0.628,-9.065 0.628,-9.065 0,0 7.246,1.935 7.7,0.087 0.454,-1.848 -0.912,-15.121 -1.285,-17.02 -0.373,-1.899 -1.487,-22.841 -1.487,-22.841 0,0 -4.416,-19.322 -4.669,-20.274 -0.253,-0.952 -2.994,-8.211 -6.522,-8.619 -3.528,-0.408 -7.923,5.2 -7.923,5.2 z"
           transform="translate(-199.654,-155.404)"
           fill="#453c9e"
           id="path94" />
        <path
           d="m 211.089,181.078 a 2.257,2.257 0 0 0 -0.883,1.293 4.287,4.287 0 0 0 0.554,4.055 c 1.316,1.665 11.941,10.336 16.243,17.626 4.347,7.369 9.727,15.586 10.18,17.288 0,0 1.96,-11.664 0.188,-17.033 -1.758,-5.325 -7.391,-16.178 -8.582,-16.985 -1.191,-0.807 -8.5,-1.5 -8.5,-1.5 z"
           transform="translate(-196.753,-155.013)"
           fill="#f0f6ff"
           id="path95" />
        <path
           d="m 220.466,190.239 a 7.28,7.28 0 0 0 -0.746,1.684 c 0,0 -3.087,-1.575 -4.377,-2.156 l 4.738,3.293 a 8.42,8.42 0 0 1 0.516,-1.982 c 0,0 2.7,2.066 3.086,2.985 0.386,0.919 5.377,13.474 5.377,13.474 l 2.626,4.288 0.676,-1.038 -4.3,-11.7 c 0,0 -2.42,-3.684 -2.453,-3.771 -0.033,-0.087 -1.67,-4.04 -1.67,-4.04 z"
           transform="translate(-195.155,-152.446)"
           fill="#c4ccd6"
           id="path96" />
        <path
           d="m 219.3,190.776 c 0,0 1.573,-2.937 4.614,-2.824 0,0 0.874,3.626 1.12,5.1 0,0 -1.964,0.845 -2.754,0.159 -0.79,-0.686 -2.98,-2.435 -2.98,-2.435 z"
           transform="translate(-193.987,-152.983)"
           fill="#160a5b"
           id="path97" />
        <path
           d="m 224.007,191.587 c 0,0 7.823,9.644 10.552,21.286 l -0.569,6 -4.115,-7.333 c 0,0 -6.74,-16.841 -8.307,-19.925 -1.567,-3.084 2.439,-0.028 2.439,-0.028 z"
           transform="translate(-193.423,-152.305)"
           fill="#160a5b"
           id="path98" />
        <path
           d="m 213.756,221.144 c -0.523,2.06 -1.14,4.621 -1.719,7.367 0.005,0.006 11.581,15.116 22.881,21.271 a 9.426,9.426 0 0 0 2.066,-4.5 69.151,69.151 0 0 0 0.715,-7.749 l -13.143,-9.964 z"
           transform="translate(-196.131,-143.178)"
           fill="#24126a"
           id="path99" />
        <path
           d="m 212.757,204.007 c 0,0 3.346,4.566 4.237,4.979 0.891,0.413 8.13,13.107 9.6,15.5 1.47,2.393 5.371,5.759 5.371,5.759 l -3.685,0.359 -14.427,-19.346 z"
           transform="translate(-195.919,-148.24)"
           fill="#24126a"
           id="path100" />
        <path
           d="m 218.643,210.152 a 23.333,23.333 0 0 0 -6.653,-9.311 c -3.329,-2.785 -7.695,-5.5 -10.005,-3.057 -4.064,4.3 -2.334,12.384 3.314,19.957 5.71,7.656 14.709,18.554 16.835,20.387 2.04,1.759 19.5,14.892 29.5,19.8 a 1.578,1.578 0 0 0 2.058,-0.645 c 1.381,-2.28 4.241,-7.031 5.264,-8.985 a 0.88,0.88 0 0 0 -0.286,-1.14 c -3.657,-2.35 -21.924,-14.095 -27.332,-17.743 a 6,6 0 0 1 -1.97,-2.238 c -1.582,-3.084 -5.645,-10.675 -9.222,-14.552 a 7.7,7.7 0 0 1 -1.478,-2.4 z"
           transform="translate(-199.758,-150.359)"
           fill="#4846a5"
           id="path101" />
        <path
           d="m 224.707,182.951 6.39,6.46 -1.65,0.573 2.106,1.224 a 61.119,61.119 0 0 1 4,25.751 c 0,0 2.538,-10.756 -2.96,-26 l -1.7,-0.863 1.148,-0.364 z"
           transform="translate(-192.389,-154.46)"
           fill="#24126a"
           id="path102" />
        <path
           d="m 211.661,185.693 a 1.581,1.581 0 0 1 0.157,0.8 13.2,13.2 0 0 0 -0.062,1.951 c 0.076,0.6 4.082,7.353 12.269,7.412 0,0 0.982,-1.462 1.177,-1.75 0,0 3.312,-0.153 4.692,-1.361 1.38,-1.208 0.529,-3.317 0.529,-3.317 l 0.2,-2.529 a 1.236,1.236 0 0 1 0.382,-0.8 2.69,2.69 0 0 0 0.745,-0.982 2.374,2.374 0 0 0 -0.281,-1.184 1.465,1.465 0 0 1 -0.123,-0.772 10.187,10.187 0 0 0 -0.315,-3.7 2.962,2.962 0 0 1 -0.01,-1.494 23.794,23.794 0 0 0 0.526,-2.42 c 0.052,-0.663 -1.073,-2.426 -1.122,-3.121 a 19.517,19.517 0 0 0 -1.017,-3.045 c 0,0 -6.086,-11.3 -15.912,-6.408 -9.9,4.929 -4.738,15.506 -3.516,18.5 0,0 1.181,2.439 1.39,2.983 0.172,0.462 0.046,0.71 0.291,1.237 z"
           transform="translate(-197.459,-160.722)"
           fill="#fcd1c5"
           id="path103" />
        <path
           d="m 230.473,170.81 a 2.471,2.471 0 0 1 -0.82,2.121 12.985,12.985 0 0 1 -6.694,3.2 c -2.2,0.293 -3.408,0.4 -4.064,0.439 a 0.871,0.871 0 0 0 -0.816,0.828 c -0.045,0.821 -0.127,2.071 -0.243,2.911 a 3.315,3.315 0 0 1 -0.291,0.972 l -0.7,1.481 a 0.974,0.974 0 0 1 -0.949,0.561 l -0.162,-0.013 a 0.944,0.944 0 0 1 -0.86,-0.824 l -0.008,-0.063 a 3.427,3.427 0 0 0 -1.866,-2.688 2.077,2.077 0 0 0 -1.71,-0.114 1.739,1.739 0 0 0 -0.992,2.342 17.463,17.463 0 0 1 -2.983,-5.755 c -0.922,-3.271 -0.709,-9.187 3.569,-12.28 4.258,-3.078 9.818,-4.325 14.563,-0.99 a 11.065,11.065 0 0 1 5.026,7.872 z"
           transform="translate(-197.658,-160.956)"
           fill="#aa8383"
           id="path104" />
        <path
           d="m 213.123,179.263 c -0.215,-0.259 0.058,2 -2.262,2.064 a 13.2,13.2 0 0 0 -0.062,1.951 c 0.076,0.6 4.082,7.353 12.269,7.412 0,0 0.982,-1.462 1.177,-1.75 0,0 -7.513,-3.648 -8.846,-5.306 a 21.954,21.954 0 0 1 -2.276,-4.371 z"
           transform="translate(-196.503,-155.555)"
           fill="#e2b1a6"
           id="path105" />
        <path
           d="m 222.86,188.314 a 12.323,12.323 0 0 1 3.27,0.812 3.862,3.862 0 0 0 -0.3,-2.4 c 0,0 0.666,0.536 0.659,3.2 0,0 -3.271,-1.063 -3.517,-1.133 z"
           transform="translate(-192.934,-153.346)"
           fill="#c4ccd6"
           id="path106" />
        <path
           d="m 254.253,252.356 c 0,0 -18.954,-10.9 -25.378,-15.24 -6.382,-4.316 -24.341,-22.637 -28.016,-29.687 a 32.248,32.248 0 0 0 4.114,7.182 c 5.71,7.656 14.709,18.554 16.835,20.387 2.04,1.759 19.5,14.892 29.5,19.8 a 1.578,1.578 0 0 0 2.058,-0.645 c 0.268,-0.443 0.592,-0.979 0.947,-1.569 -0.035,-0.142 -0.06,-0.228 -0.06,-0.228 z"
           transform="translate(-199.433,-147.229)"
           fill="#24126a"
           id="path107" />
        <path
           d="m 208.425,187.185 8.66,12.315 2.228,-0.791 0.122,2.35 c 0,0 10.363,7.72 18.113,23.757 0,0 -10.257,-16.519 -18.425,-22.015 l -0.742,-2.36 -1.737,0.4 z"
           transform="translate(-197.198,-153.209)"
           fill="#24126a"
           id="path108" />
        <path
           d="m 207.887,174.05 c -0.095,-0.032 -0.183,-0.056 -0.271,-0.079 a 17.822,17.822 0 0 0 2.46,4.244 1.739,1.739 0 0 1 0.992,-2.342 2.077,2.077 0 0 1 1.71,0.114 3.427,3.427 0 0 1 1.869,2.681 l 0.008,0.063 a 0.944,0.944 0 0 0 0.86,0.824 l 0.162,0.013 a 0.974,0.974 0 0 0 0.949,-0.561 l 0.7,-1.481 a 3.315,3.315 0 0 0 0.291,-0.972 c 0.117,-0.839 0.2,-2.089 0.243,-2.911 -0.001,0.002 -5.779,1.873 -9.973,0.407 z"
           transform="translate(-197.437,-157.208)"
           fill="#936d6d"
           id="path109" />
      </g>
      <g
         transform="translate(195.905,59.09)"
         id="g117">
        <path
           d="m 288.778,162.245 -4.251,-2.454 v 8.181 l 4.251,2.454 z"
           transform="translate(-284.527,-159.791)"
           fill="#42e8e0"
           opacity="0.4"
           style="isolation:isolate;mix-blend-mode:lighten"
           id="path110" />
        <path
           d="m 294.638,178.722 -4.251,-2.454 v -6.778 l 4.251,2.454 z"
           transform="translate(-282.796,-156.926)"
           fill="#42e8e0"
           opacity="0.6"
           style="isolation:isolate;mix-blend-mode:lighten"
           id="path111" />
        <path
           d="m 300.5,170.7 -4.251,-2.454 v 6 l 4.251,2.454 z"
           transform="translate(-281.066,-157.295)"
           fill="#42e8e0"
           opacity="0.8"
           style="isolation:isolate;mix-blend-mode:lighten"
           id="path112" />
        <path
           d="m 306.358,169.387 -4.251,-2.454 v 12.076 l 4.251,2.454 z"
           transform="translate(-279.335,-157.681)"
           fill="#42e8e0"
           style="isolation:isolate;mix-blend-mode:lighten"
           id="path113" />
        <path
           d="m 312.218,168.681 -4.251,-2.454 V 183.6 l 4.251,2.454 z"
           transform="translate(-277.604,-157.89)"
           fill="#42e8e0"
           style="isolation:isolate;mix-blend-mode:lighten"
           id="path114" />
        <path
           d="m 318.078,176.154 -4.251,-2.454 v 12.076 l 4.251,2.454 z"
           transform="translate(-275.873,-155.682)"
           fill="#42e8e0"
           opacity="0.8"
           style="isolation:isolate;mix-blend-mode:lighten"
           id="path115" />
        <path
           d="m 323.938,177.131 -4.251,-2.454 v 15.193 l 4.251,2.454 z"
           transform="translate(-274.142,-155.394)"
           fill="#42e8e0"
           opacity="0.6"
           style="isolation:isolate;mix-blend-mode:lighten"
           id="path116" />
        <path
           d="m 329.8,175.463 -4.251,-2.454 v 21.737 l 4.251,2.454 z"
           transform="translate(-272.411,-155.887)"
           fill="#42e8e0"
           opacity="0.4"
           style="isolation:isolate;mix-blend-mode:lighten"
           id="path117" />
      </g>
      <g
         transform="translate(279.344,155.935)"
         id="g125">
        <path
           d="m 386.292,283.749 v 0 c 1.016,0.588 1.841,0.24 1.841,-0.776 l 0.021,-43.54 a 3.814,3.814 0 0 0 -1.838,-2.9 v 0 c -1.017,-0.588 -1.841,-0.24 -1.842,0.777 l -0.021,43.54 a 3.816,3.816 0 0 0 1.839,2.899 z"
           transform="translate(-338.45,-234.053)"
           fill="#42e8e0"
           opacity="0.4"
           id="path118" />
        <path
           d="m 381.219,277.38 v 0 c 1.016,0.588 1.839,0.24 1.841,-0.777 l 0.013,-28.462 a 3.812,3.812 0 0 0 -1.839,-2.9 v 0 c -1.016,-0.588 -1.839,-0.24 -1.841,0.777 l -0.013,28.462 a 3.812,3.812 0 0 0 1.839,2.9 z"
           transform="translate(-339.949,-231.482)"
           fill="#42e8e0"
           opacity="0.6"
           id="path119" />
        <path
           d="m 376.145,276.653 v 0 c 1.017,0.587 1.841,0.24 1.841,-0.777 l 0.019,-38.133 a 3.822,3.822 0 0 0 -1.839,-2.9 v 0 c -1.017,-0.587 -1.841,-0.24 -1.841,0.777 l -0.019,38.133 a 3.822,3.822 0 0 0 1.839,2.9 z"
           transform="translate(-341.448,-234.553)"
           fill="#42e8e0"
           opacity="0.8"
           id="path120" />
        <path
           d="m 371.072,270.424 v 0 c 1.016,0.588 1.841,0.24 1.841,-0.776 l 0.012,-23.679 a 3.816,3.816 0 0 0 -1.839,-2.9 v 0 c -1.016,-0.588 -1.841,-0.24 -1.841,0.777 l -0.012,23.678 a 3.816,3.816 0 0 0 1.839,2.9 z"
           transform="translate(-342.946,-232.123)"
           fill="#42e8e0"
           id="path121" />
        <path
           d="m 366,268.014 v 0 c 1.016,0.588 1.839,0.24 1.841,-0.777 l 0.013,-25.967 a 3.824,3.824 0 0 0 -1.839,-2.9 v 0 c -1.017,-0.587 -1.841,-0.24 -1.842,0.777 l -0.012,25.967 a 3.813,3.813 0 0 0 1.839,2.9 z"
           transform="translate(-344.444,-233.511)"
           fill="#42e8e0"
           id="path122" />
        <path
           d="m 360.925,263.089 v 0 c 1.017,0.587 1.841,0.24 1.841,-0.777 l 0.009,-17.226 a 3.816,3.816 0 0 0 -1.839,-2.9 v 0 c -1.016,-0.588 -1.841,-0.24 -1.841,0.777 l -0.009,17.226 a 3.821,3.821 0 0 0 1.839,2.9 z"
           transform="translate(-345.943,-232.384)"
           fill="#42e8e0"
           opacity="0.8"
           id="path123" />
        <path
           d="m 355.852,261.01 v 0 c 1.017,0.588 1.841,0.24 1.841,-0.776 l 0.01,-20.976 a 3.816,3.816 0 0 0 -1.839,-2.9 v 0 c -1.016,-0.588 -1.841,-0.24 -1.841,0.777 l -0.01,20.975 a 3.816,3.816 0 0 0 1.839,2.9 z"
           transform="translate(-347.442,-234.105)"
           fill="#42e8e0"
           opacity="0.6"
           id="path124" />
        <path
           d="m 350.779,255.044 v 0 c 1.016,0.587 1.841,0.24 1.841,-0.777 v -7.666 a 3.822,3.822 0 0 0 -1.839,-2.9 v 0 c -1.017,-0.587 -1.841,-0.24 -1.841,0.777 v 7.666 a 3.813,3.813 0 0 0 1.839,2.9 z"
           transform="translate(-348.94,-231.936)"
           fill="#42e8e0"
           opacity="0.4"
           id="path125" />
      </g>
    </g>
  </g>
</svg>
