<?xml version="1.0" encoding="UTF-8" standalone="no"?>
<svg
   width="164.026"
   height="164.027"
   viewBox="0 0 164.026 164.027"
   version="1.1"
   id="svg11"
   sodipodi:docname="TokenDistribution.svg"
   xml:space="preserve"
   inkscape:version="1.4.2 (f4327f4, 2025-05-13)"
   xmlns:inkscape="http://www.inkscape.org/namespaces/inkscape"
   xmlns:sodipodi="http://sodipodi.sourceforge.net/DTD/sodipodi-0.dtd"
   xmlns="http://www.w3.org/2000/svg"
   xmlns:svg="http://www.w3.org/2000/svg"><defs
     id="defs11"><rect
       x="26.73251"
       y="56.052037"
       width="62.950749"
       height="54.327359"
       id="rect12" /></defs><sodipodi:namedview
     id="namedview11"
     pagecolor="#505050"
     bordercolor="#eeeeee"
     borderopacity="1"
     inkscape:showpageshadow="0"
     inkscape:pageopacity="0"
     inkscape:pagecheckerboard="0"
     inkscape:deskcolor="#505050"
     inkscape:zoom="3.4789102"
     inkscape:cx="71.574138"
     inkscape:cy="86.090178"
     inkscape:window-width="1920"
     inkscape:window-height="1009"
     inkscape:window-x="-8"
     inkscape:window-y="-8"
     inkscape:window-maximized="1"
     inkscape:current-layer="svg11"
     showgrid="false" /><g
     id="g11"
     transform="matrix(0.30051607,-0.14998655,-0.0106067,0.27865256,86.652478,83.441235)"
     style="fill:#021851;fill-opacity:1"><path
       d="m 632.55,356.114 a 33.954,33.954 0 1 1 33.956,-33.956 33.993,33.993 0 0 1 -33.956,33.956 z m 0,-62.625 a 28.67,28.67 0 1 0 28.672,28.669 28.7,28.7 0 0 0 -28.672,-28.669 z"
       transform="translate(-587.433,-277.041)"
       fill="#333333"
       id="path1"
       style="fill:#021851;fill-opacity:1" /><path
       d="m 639.951,374.679 a 45.119,45.119 0 1 1 45.12,-45.12 45.17,45.17 0 0 1 -45.12,45.12 z m 0,-84.953 a 39.835,39.835 0 1 0 39.836,39.833 39.879,39.879 0 0 0 -39.836,-39.833 z"
       fill="#333333"
       id="path6"
       transform="translate(-594.834,-284.442)"
       style="fill:#021851;fill-opacity:1" /><path
       d="m 628.359,292.482 h -17.848 a 5.261,5.261 0 0 0 -5.245,5.248 V 311 a 5.259,5.259 0 0 0 5.245,5.248 h 2.9 l -0.988,0.985 a 2.5006838,2.5006838 0 0 0 3.539,3.534 l 4.51,-4.519 h 7.728 a 0.412,0.412 0 0 1 0.412,0.406 V 329.6 a 0.41,0.41 0 0 1 -0.409,0.409 h -17.532 a 0.415,0.415 0 0 1 -0.41,-0.409 v -4.189 a 2.5,2.5 0 1 0 -4.993,0 v 0 4.349 a 5.256,5.256 0 0 0 5.243,5.246 h 17.849 a 5.257,5.257 0 0 0 5.245,-5.246 v -13.273 a 5.255,5.255 0 0 0 -5.245,-5.248 h -2.893 l 0.869,-0.872 0.267,-0.267 a 2.5,2.5 0 0 0 -0.139,-3.317 2.467,2.467 0 0 0 -1.759,-0.763 2.7,2.7 0 0 0 -1.783,0.706 l -4.519,4.513 h -7.732 a 0.413,0.413 0 0 1 -0.412,-0.409 v -12.945 a 0.417,0.417 0 0 1 0.412,-0.412 h 17.522 a 0.414,0.414 0 0 1 0.415,0.412 v 4.186 a 2.5,2.5 0 0 0 2.5,2.5 v 0 a 2.5,2.5 0 0 0 2.5,-2.5 v -4.353 a 5.261,5.261 0 0 0 -5.249,-5.236 z"
       transform="translate(-574.318,-268.628)"
       fill="#333333"
       id="path11"
       style="fill:#021851;fill-opacity:1" /></g><text
     xml:space="preserve"
     id="text12"
     style="font-style:normal;font-variant:normal;font-weight:normal;font-stretch:normal;font-size:48px;font-family:Bahnschrift;-inkscape-font-specification:Bahnschrift;text-align:start;writing-mode:lr-tb;direction:ltr;white-space:pre;shape-inside:url(#rect12);display:inline;fill:#021851;fill-opacity:1"
     transform="matrix(0.39987478,0.20731599,0,0.39987478,45.662042,45.233928)"><tspan
       x="26.732422"
       y="100.16211"
       id="tspan4"><tspan
         style="font-weight:bold;-inkscape-font-specification:'Bahnschrift Bold'"
         id="tspan3">TX</tspan></tspan></text><path
     d="M 45.31664,55.797039 80.88332,43.958618 c 0.424179,-0.141393 0.874064,-0.128539 1.259681,0 v 0 l 36.029419,12.339723 c 0.88692,0.295638 1.42678,1.156849 1.3368,2.05662 0.0128,0.03857 0.0128,0.08998 0.0128,0.141393 V 100.4 h -0.0128 c 0,0.71982 -0.39847,1.42678 -1.09258,1.77384 l -35.772338,18.17537 c -0.295639,0.17996 -0.655548,0.28279 -1.02831,0.28279 -0.39847,0 -0.771234,-0.11569 -1.079726,-0.32135 l -35.86232,-18.70239 c -0.681256,-0.35991 -1.066873,-1.04116 -1.066873,-1.76098 v 0 -42.070743 c -0.01285,-1.015457 0.732672,-1.838105 1.709567,-1.979498 z M 33.799562,31.117593 44.673946,41.991974 c 0.951187,0.951187 0.951187,2.480799 0,3.431985 -0.938333,0.938334 -2.480799,0.938334 -3.419132,0 l -10.79726,-10.797258 0.295639,7.146757 c 0,0.06427 0,0.141393 -0.02571,0.205662 -0.1671,0.539863 -0.514154,1.002602 -0.951186,1.323949 -0.437032,0.321347 -0.964041,0.514156 -1.542466,0.514156 -0.719818,0.01286 -1.388219,-0.282786 -1.863812,-0.758379 -0.488447,-0.475594 -0.784087,-1.131141 -0.796941,-1.863812 -0.205662,-4.113241 -0.62984,-8.71493 -0.62984,-12.763902 0,-0.822647 0.282785,-1.516757 0.784087,-2.005205 0.488447,-0.475593 1.156849,-0.758379 1.95379,-0.771232 3.444838,-0.128539 9.267645,0.3342 12.85388,0.591279 0.719817,0.01285 1.375365,0.295638 1.838105,0.771232 0.462739,0.46274 0.758379,1.105434 0.784086,1.812397 v 0.06427 c 0,0.719817 -0.295639,1.388218 -0.771233,1.863812 -0.46274,0.46274 -1.105434,0.758379 -1.812396,0.771232 h -0.05141 v 0 c -2.185162,0 -3.869021,-0.154247 -5.540025,-0.308492 z M 11.639476,79.859499 h 15.373239 c 1.336803,0 2.416529,1.079726 2.416529,2.41653 0,1.336803 -1.079726,2.416529 -2.416529,2.416529 H 11.742307 l 5.27009,4.845911 c 0.05141,0.05141 0.08998,0.102828 0.128539,0.1671 0.257078,0.501302 0.347055,1.066873 0.257078,1.606735 -0.07712,0.52701 -0.321347,1.041164 -0.732672,1.452489 -0.501301,0.51416 -1.182556,0.784089 -1.850958,0.784089 -0.681256,0 -1.362511,-0.244222 -1.876667,-0.758382 C 9.8913489,90.026916 6.3308243,87.070525 3.4644095,84.20411 2.8731311,83.638539 2.5903457,82.957284 2.5903457,82.263174 c 0,-0.681255 0.2827854,-1.349656 0.8355021,-1.915227 2.3394059,-2.532214 6.7997022,-6.311255 9.5118692,-8.663514 0.514156,-0.501302 1.182558,-0.758379 1.85096,-0.758379 0.655547,0 1.311095,0.244223 1.82525,0.719817 l 0.05141,0.05141 c 0.514156,0.514156 0.771233,1.195411 0.771233,1.863813 0,0.655548 -0.244224,1.311095 -0.732671,1.82525 l -0.02571,0.03857 v 0 c -1.542465,1.55532 -2.840708,2.622191 -4.138949,3.689064 z m 18.79237,50.155821 10.874383,-10.87438 c 0.938333,-0.93833 2.480799,-0.93833 3.419132,0 0.951187,0.9512 0.951187,2.48081 0,3.43199 l -10.79726,10.79726 7.146758,-0.29564 c 0.06427,0 0.141394,0.0128 0.205662,0.0257 0.539864,0.17996 1.002603,0.51415 1.32395,0.95118 0.321347,0.43704 0.514155,0.96404 0.514155,1.54247 0,0.71982 -0.282785,1.38822 -0.758379,1.86381 -0.475592,0.48845 -1.131141,0.78409 -1.863812,0.79694 -4.113243,0.20567 -8.714931,0.62984 -12.776758,0.62984 -0.822647,0 -1.516757,-0.28278 -2.005204,-0.77123 -0.475593,-0.48845 -0.758379,-1.15685 -0.771233,-1.95379 -0.141392,-3.44484 0.334201,-9.26765 0.591278,-12.85387 0.01286,-0.71982 0.295639,-1.37537 0.771233,-1.83811 0.46274,-0.46275 1.105434,-0.75838 1.799543,-0.78409 h 0.06427 c 0.719817,0 1.388218,0.29564 1.863812,0.77123 0.46274,0.46274 0.758379,1.10544 0.784087,1.8124 v 0.0385 0 c 0.01285,2.19802 -0.154247,3.86902 -0.308493,5.54002 z m 48.741909,22.14724 v -15.37324 c 0,-1.33681 1.079726,-2.41652 2.416529,-2.41652 1.336803,0 2.416529,1.07971 2.416529,2.41652 v 15.27041 l 4.845912,-5.27009 c 0.05141,-0.0514 0.102829,-0.0899 0.167101,-0.12854 0.5013,-0.25707 1.066871,-0.34705 1.606734,-0.25707 0.527009,0.0771 1.041165,0.32134 1.452488,0.73266 0.514156,0.50131 0.784087,1.18256 0.784087,1.86381 0,0.68126 -0.244224,1.36252 -0.758378,1.87667 -2.763585,3.04637 -5.719977,6.60689 -8.586391,9.47331 -0.591279,0.57843 -1.272535,0.87406 -1.966644,0.87406 -0.681255,0 -1.349657,-0.28279 -1.915228,-0.8355 -2.532214,-2.3394 -6.311254,-6.78684 -8.663513,-9.51187 -0.501302,-0.51415 -0.758379,-1.18255 -0.758379,-1.85096 0,-0.65555 0.244223,-1.32395 0.719817,-1.82524 l 0.05141,-0.0514 c 0.514156,-0.51416 1.195411,-0.77123 1.863812,-0.77123 0.655549,0 1.311096,0.24422 1.825252,0.73267 l 0.02571,0.0257 v 0 c 1.555319,1.54247 2.622192,2.84072 3.689063,4.13895 z M 129.32958,133.38305 118.4552,122.50867 c -0.95119,-0.9512 -0.95119,-2.48081 0,-3.43199 0.93833,-0.93833 2.4808,-0.93833 3.41913,0 l 10.79726,10.79726 -0.29564,-7.14676 c 0,-0.0642 0,-0.14139 0.0257,-0.20567 0.1671,-0.53986 0.51415,-1.00259 0.95118,-1.32395 0.43703,-0.32134 0.96404,-0.51415 1.54247,-0.51415 0.71982,-0.0129 1.38822,0.28279 1.86381,0.75839 0.48844,0.47558 0.78409,1.13113 0.79694,1.86381 0.20567,4.11323 0.62984,8.71492 0.62984,12.77674 0,0.82266 -0.28278,1.51676 -0.78408,2.00521 -0.48845,0.47559 -1.15685,0.75838 -1.95379,0.77123 -3.44485,0.12855 -9.26765,-0.33419 -12.85388,-0.59127 -0.71982,-0.0129 -1.37537,-0.29564 -1.83811,-0.77124 -0.46273,-0.46273 -0.75838,-1.10543 -0.78409,-1.81239 v -0.0642 c 0,-0.71981 0.29565,-1.38822 0.77124,-1.86381 0.46274,-0.46274 1.10543,-0.75838 1.81239,-0.78409 h 0.0514 v 0 c 2.19801,-0.0128 3.86902,0.15425 5.52717,0.3085 z m 22.16009,-48.754762 h -15.37324 c -1.33681,0 -2.42939,-1.079726 -2.42939,-2.416529 0,-1.336803 1.09258,-2.416529 2.42939,-2.416529 h 15.27041 l -5.27009,-4.845912 c -0.0514,-0.05142 -0.0899,-0.102829 -0.12854,-0.167101 -0.25708,-0.5013 -0.34706,-1.066872 -0.25708,-1.606734 0.0771,-0.527009 0.32135,-1.041165 0.73267,-1.452489 0.51415,-0.514155 1.18256,-0.784087 1.86381,-0.784087 0.68126,0 1.36251,0.244224 1.87667,0.758379 3.04637,2.763584 6.60689,5.719977 9.47331,8.586391 0.57843,0.591279 0.87406,1.272535 0.8612,1.966644 0,0.681255 -0.28277,1.349656 -0.83549,1.915228 -2.33941,2.532214 -6.79971,6.311254 -9.51188,8.663513 -0.51415,0.501305 -1.18255,0.758376 -1.85095,0.758376 -0.65556,0 -1.32395,-0.244223 -1.82525,-0.719809 l -0.0514,-0.05143 c -0.51415,-0.514155 -0.77123,-1.195411 -0.77123,-1.863812 0,-0.655548 0.24422,-1.323949 0.73267,-1.825251 l 0.0257,-0.03857 v 0 c 1.54247,-1.555319 2.84072,-2.622191 4.13896,-3.689063 z M 132.68445,34.485309 121.81007,45.359691 c -0.93834,0.938332 -2.4808,0.938332 -3.41914,0 -0.95118,-0.951188 -0.95118,-2.480799 0,-3.419133 l 10.79726,-10.797257 -7.14676,0.295639 c -0.0642,0 -0.14139,-0.01286 -0.20566,-0.02571 -0.53987,-0.179954 -1.0026,-0.514154 -1.32395,-0.951186 -0.32135,-0.437032 -0.51416,-0.964041 -0.51416,-1.542466 0,-0.719818 0.28279,-1.388219 0.75839,-1.863812 0.47559,-0.488447 1.13114,-0.784087 1.86381,-0.796941 4.11323,-0.205662 8.71493,-0.62984 12.77675,-0.62984 0.82265,0 1.51676,0.282785 2.00521,0.771233 0.4756,0.488448 0.75837,1.156848 0.77123,1.953789 0.1414,3.44484 -0.3342,9.267647 -0.59128,12.853878 -0.0129,0.719818 -0.29564,1.375365 -0.77124,1.850959 -0.46273,0.46274 -1.10542,0.758379 -1.81239,0.784087 h -0.0642 c -0.71982,0 -1.38823,-0.29564 -1.86381,-0.771233 -0.46275,-0.46274 -0.75839,-1.105434 -0.7841,-1.812396 v -0.03857 0 c 0,-2.198014 0.15425,-3.869018 0.3085,-5.540022 z M 83.942543,12.325223 v 15.373239 c 0,1.336803 -1.079725,2.416529 -2.416529,2.416529 -1.336803,0 -2.429382,-1.079726 -2.429382,-2.416529 V 12.440908 l -4.833058,5.257236 c -0.05141,0.05141 -0.102829,0.08998 -0.167102,0.128539 -0.5013,0.257078 -1.066871,0.347055 -1.606734,0.257078 -0.527009,-0.07712 -1.041165,-0.321347 -1.452488,-0.732672 -0.514156,-0.501301 -0.784086,-1.182556 -0.784086,-1.850958 0,-0.681256 0.244223,-1.362511 0.758379,-1.876666 2.763582,-3.046369 5.719975,-6.6068945 8.586389,-9.4733087 0.565571,-0.5912787 1.259681,-0.874064 1.95379,-0.874064 0.681256,0 1.349658,0.2827853 1.915228,0.8355023 2.532214,2.3394059 6.311254,6.7868484 8.663514,9.5118704 0.501301,0.514155 0.758379,1.182557 0.758379,1.850959 0,0.655547 -0.244224,1.311095 -0.719818,1.82525 l -0.05141,0.05141 c -0.514155,0.514156 -1.195411,0.771234 -1.863812,0.771234 -0.655548,0 -1.311096,-0.244225 -1.825251,-0.732672 l -0.03857,-0.02571 v 0 c -1.555316,-1.542458 -2.622188,-2.8407 -3.68906,-4.138941 z m -30.75933,74.179731 c 0,-0.758379 0.616986,-1.388219 1.388219,-1.388219 0.758378,0 1.388219,0.616987 1.388219,1.388219 v 5.642852 c 0,0.03857 0,0.08998 -0.01286,0.141394 0,0.192808 0.02571,0.347054 0.06427,0.475593 0.02571,0.03857 0.03857,0.07712 0.07712,0.102839 l 3.457693,1.60673 c 0.694109,0.321348 0.989749,1.143988 0.681256,1.838108 -0.321347,0.69411 -1.131141,0.98974 -1.82525,0.68125 l -3.534817,-1.6453 c -0.06427,-0.0257 -0.128539,-0.0514 -0.179955,-0.10278 -0.56557,-0.35991 -0.964041,-0.835509 -1.208264,-1.426782 -0.192808,-0.475597 -0.282785,-1.002601 -0.269932,-1.568171 v -0.08998 z M 79.62364,115.37476 V 75.283518 L 47.578922,60.758636 V 98.65187 Z M 115.52451,61.23423 83.608343,75.309226 V 115.41332 L 115.52451,99.19173 Z M 81.487452,47.930466 51.190862,58.02076 81.628846,71.825825 112.06683,58.419231 Z"
     id="path1-4"
     style="stroke-width:1.28539;fill:#021851;fill-opacity:1" /></svg>
