<?xml version="1.0" encoding="UTF-8" standalone="no"?>
<svg
   width="155.444"
   height="155.441"
   viewBox="0 0 155.444 155.441"
   version="1.1"
   id="svg23"
   sodipodi:docname="MultiDifferent.svg"
   inkscape:version="1.4.2 (f4327f4, 2025-05-13)"
   xmlns:inkscape="http://www.inkscape.org/namespaces/inkscape"
   xmlns:sodipodi="http://sodipodi.sourceforge.net/DTD/sodipodi-0.dtd"
   xmlns="http://www.w3.org/2000/svg"
   xmlns:svg="http://www.w3.org/2000/svg">
  <defs
     id="defs23" />
  <sodipodi:namedview
     id="namedview23"
     pagecolor="#505050"
     bordercolor="#eeeeee"
     borderopacity="1"
     inkscape:showpageshadow="0"
     inkscape:pageopacity="0"
     inkscape:pagecheckerboard="0"
     inkscape:deskcolor="#505050"
     inkscape:zoom="5.1916806"
     inkscape:cx="77.816805"
     inkscape:cy="77.720497"
     inkscape:window-width="1920"
     inkscape:window-height="1009"
     inkscape:window-x="-8"
     inkscape:window-y="-8"
     inkscape:window-maximized="1"
     inkscape:current-layer="svg23" />
  <g
     transform="translate(0 0)"
     id="g23"
     style="fill:#021851;fill-opacity:1">
    <path
       d="M473.241-82.826H415.5a2.651,2.651,0,0,1-1.873-.776L397.6-99.622a2.65,2.65,0,0,1-.776-1.872V-159.24a2.65,2.65,0,0,1,.776-1.873l16.032-16.032a2.651,2.651,0,0,1,1.873-.776h57.745a2.651,2.651,0,0,1,1.873.776l16.021,16.021a2.65,2.65,0,0,1,.776,1.873v57.745a2.638,2.638,0,0,1-.776,1.87L475.111-83.6A2.643,2.643,0,0,1,473.241-82.826ZM416.593-88.12h55.552L486.628-102.6v-55.555l-14.472-14.469H416.6l-14.484,14.481v55.555Z"
       transform="translate(-366.652 208.092)"
       fill="#fff"
       id="path1"
       style="fill:#021851;fill-opacity:1" />
    <path
       d="M491.629-59.412H415.783a2.65,2.65,0,0,1-1.873-.776L392.867-81.231a2.644,2.644,0,0,1-.776-1.87V-158.95a2.649,2.649,0,0,1,.776-1.87l21.062-21.062a2.644,2.644,0,0,1,1.87-.776h75.849a2.643,2.643,0,0,1,1.87.776l21.044,21.044a2.65,2.65,0,0,1,.776,1.873v75.849a2.638,2.638,0,0,1-.776,1.87L493.5-60.187A2.645,2.645,0,0,1,491.629-59.412Zm-74.75-5.294h73.656l19.507-19.507v-73.656l-19.492-19.5H416.895l-19.51,19.51V-84.2Z"
       transform="translate(-375.993 198.751)"
       fill="#fff"
       id="path2"
       style="fill:#021851;fill-opacity:1" />
    <path
       d="M450.521-157.52h-16.1a2.649,2.649,0,0,1-2.648-2.648,2.646,2.646,0,0,1,2.648-2.645h16.1a2.646,2.646,0,0,1,2.648,2.645A2.649,2.649,0,0,1,450.521-157.52Z"
       transform="translate(-297.725 237.887)"
       fill="#fff"
       id="path3"
       style="fill:#021851;fill-opacity:1" />
    <path
       d="M450.521-162h-16.1a2.646,2.646,0,0,1-2.648-2.645,2.649,2.649,0,0,1,2.648-2.648h16.1a2.649,2.649,0,0,1,2.648,2.648A2.646,2.646,0,0,1,450.521-162Z"
       transform="translate(-297.725 229.059)"
       fill="#fff"
       id="path4"
       style="fill:#021851;fill-opacity:1" />
    <path
       d="M450.521-166.471h-16.1a2.648,2.648,0,0,1-2.648-2.645,2.649,2.649,0,0,1,2.648-2.648h16.1a2.649,2.649,0,0,1,2.648,2.648A2.648,2.648,0,0,1,450.521-166.471Z"
       transform="translate(-297.725 220.233)"
       fill="#fff"
       id="path5"
       style="fill:#021851;fill-opacity:1" />
    <path
       d="M450.521-153.045h-16.1a2.648,2.648,0,0,1-2.648-2.645,2.649,2.649,0,0,1,2.648-2.648h16.1a2.649,2.649,0,0,1,2.648,2.648A2.648,2.648,0,0,1,450.521-153.045Z"
       transform="translate(-297.725 246.713)"
       fill="#fff"
       id="path6"
       style="fill:#021851;fill-opacity:1" />
    <path
       d="M450.521-148.57h-16.1a2.646,2.646,0,0,1-2.648-2.645,2.649,2.649,0,0,1,2.648-2.648h16.1a2.649,2.649,0,0,1,2.648,2.648A2.646,2.646,0,0,1,450.521-148.57Z"
       transform="translate(-297.725 255.539)"
       fill="#fff"
       id="path7"
       style="fill:#021851;fill-opacity:1" />
    <path
       d="M405.421-157.52h-16.1a2.649,2.649,0,0,1-2.648-2.648,2.646,2.646,0,0,1,2.648-2.645h16.1a2.644,2.644,0,0,1,2.645,2.645A2.646,2.646,0,0,1,405.421-157.52Z"
       transform="translate(-386.675 237.887)"
       fill="#fff"
       id="path8"
       style="fill:#021851;fill-opacity:1" />
    <path
       d="M405.421-162h-16.1a2.646,2.646,0,0,1-2.648-2.645,2.649,2.649,0,0,1,2.648-2.648h16.1a2.646,2.646,0,0,1,2.645,2.648A2.644,2.644,0,0,1,405.421-162Z"
       transform="translate(-386.675 229.059)"
       fill="#fff"
       id="path9"
       style="fill:#021851;fill-opacity:1" />
    <path
       d="M405.421-166.471h-16.1a2.648,2.648,0,0,1-2.648-2.645,2.649,2.649,0,0,1,2.648-2.648h16.1a2.646,2.646,0,0,1,2.645,2.648A2.645,2.645,0,0,1,405.421-166.471Z"
       transform="translate(-386.675 220.233)"
       fill="#fff"
       id="path10"
       style="fill:#021851;fill-opacity:1" />
    <path
       d="M405.421-153.045h-16.1a2.648,2.648,0,0,1-2.648-2.645,2.649,2.649,0,0,1,2.648-2.648h16.1a2.646,2.646,0,0,1,2.645,2.648A2.645,2.645,0,0,1,405.421-153.045Z"
       transform="translate(-386.675 246.713)"
       fill="#fff"
       id="path11"
       style="fill:#021851;fill-opacity:1" />
    <path
       d="M405.421-148.57h-16.1a2.646,2.646,0,0,1-2.648-2.645,2.649,2.649,0,0,1,2.648-2.648h16.1a2.646,2.646,0,0,1,2.645,2.648A2.644,2.644,0,0,1,405.421-148.57Z"
       transform="translate(-386.675 255.539)"
       fill="#fff"
       id="path12"
       style="fill:#021851;fill-opacity:1" />
    <path
       d="M414.581-121.579a2.649,2.649,0,0,1-2.648-2.648v-16.1a2.649,2.649,0,0,1,2.648-2.648,2.646,2.646,0,0,1,2.645,2.648v16.1A2.646,2.646,0,0,1,414.581-121.579Z"
       transform="translate(-336.859 277.019)"
       fill="#fff"
       id="path13"
       style="fill:#021851;fill-opacity:1" />
    <path
       d="M419.054-121.579a2.646,2.646,0,0,1-2.645-2.648v-16.1a2.646,2.646,0,0,1,2.645-2.648,2.649,2.649,0,0,1,2.648,2.648v16.1A2.649,2.649,0,0,1,419.054-121.579Z"
       transform="translate(-328.031 277.019)"
       fill="#fff"
       id="path14"
       style="fill:#021851;fill-opacity:1" />
    <path
       d="M423.529-121.579a2.648,2.648,0,0,1-2.645-2.648v-16.1a2.648,2.648,0,0,1,2.645-2.648,2.649,2.649,0,0,1,2.648,2.648v16.1A2.649,2.649,0,0,1,423.529-121.579Z"
       transform="translate(-319.205 277.019)"
       fill="#fff"
       id="path15"
       style="fill:#021851;fill-opacity:1" />
    <path
       d="M410.1-121.579a2.648,2.648,0,0,1-2.645-2.648v-16.1a2.648,2.648,0,0,1,2.645-2.648,2.649,2.649,0,0,1,2.648,2.648v16.1A2.649,2.649,0,0,1,410.1-121.579Z"
       transform="translate(-345.685 277.019)"
       fill="#fff"
       id="path16"
       style="fill:#021851;fill-opacity:1" />
    <path
       d="M405.628-121.579a2.648,2.648,0,0,1-2.645-2.648v-16.1a2.648,2.648,0,0,1,2.645-2.648,2.649,2.649,0,0,1,2.648,2.648v16.1A2.649,2.649,0,0,1,405.628-121.579Z"
       transform="translate(-354.511 277.019)"
       fill="#fff"
       id="path17"
       style="fill:#021851;fill-opacity:1" />
    <path
       d="M414.579-166.684a2.644,2.644,0,0,1-2.645-2.645v-16.1a2.644,2.644,0,0,1,2.645-2.645,2.646,2.646,0,0,1,2.648,2.645v16.1A2.646,2.646,0,0,1,414.579-166.684Z"
       transform="translate(-336.857 188.071)"
       fill="#fff"
       id="path18"
       style="fill:#021851;fill-opacity:1" />
    <path
       d="M419.054-166.684a2.644,2.644,0,0,1-2.645-2.645v-16.1a2.644,2.644,0,0,1,2.645-2.645,2.646,2.646,0,0,1,2.648,2.645v16.1A2.646,2.646,0,0,1,419.054-166.684Z"
       transform="translate(-328.031 188.071)"
       fill="#fff"
       id="path19"
       style="fill:#021851;fill-opacity:1" />
    <path
       d="M423.529-166.684a2.645,2.645,0,0,1-2.645-2.645v-16.1a2.645,2.645,0,0,1,2.645-2.645,2.646,2.646,0,0,1,2.648,2.645v16.1A2.646,2.646,0,0,1,423.529-166.684Z"
       transform="translate(-319.205 188.071)"
       fill="#fff"
       id="path20"
       style="fill:#021851;fill-opacity:1" />
    <path
       d="M410.106-166.684a2.646,2.646,0,0,1-2.648-2.645v-16.1a2.646,2.646,0,0,1,2.648-2.645,2.644,2.644,0,0,1,2.645,2.645v16.1A2.644,2.644,0,0,1,410.106-166.684Z"
       transform="translate(-345.685 188.071)"
       fill="#fff"
       id="path21"
       style="fill:#021851;fill-opacity:1" />
    <path
       d="M405.628-166.684a2.645,2.645,0,0,1-2.645-2.645v-16.1a2.645,2.645,0,0,1,2.645-2.645,2.646,2.646,0,0,1,2.648,2.645v16.1A2.646,2.646,0,0,1,405.628-166.684Z"
       transform="translate(-354.511 188.071)"
       fill="#fff"
       id="path22"
       style="fill:#021851;fill-opacity:1" />
    <path
       d="M435.778-171.207H413.3a6.622,6.622,0,0,0-6.607,6.607v16.713a6.622,6.622,0,0,0,6.607,6.607h3.644l-1.239,1.239a3.144,3.144,0,0,0,.131,4.449,3.143,3.143,0,0,0,4.322,0l5.68-5.689h9.743a.517.517,0,0,1,.517.514v16.306a.516.516,0,0,1-.514.514H413.5a.517.517,0,0,1-.517-.514v-5.276a3.146,3.146,0,0,0-3.145-3.145,3.147,3.147,0,0,0-3.148,3.145h0v5.478a6.618,6.618,0,0,0,6.607,6.607h22.479a6.623,6.623,0,0,0,6.6-6.607v-16.716a6.617,6.617,0,0,0-6.6-6.607h-3.644l1.091-1.1.339-.336a3.154,3.154,0,0,0-.175-4.179,3.126,3.126,0,0,0-2.217-.963,3.418,3.418,0,0,0-2.247.889l-5.686,5.689H413.5a.517.517,0,0,1-.517-.514V-164.4a.522.522,0,0,1,.517-.52h22.072a.523.523,0,0,1,.52.52v5.273a3.147,3.147,0,0,0,3.148,3.148,3.147,3.147,0,0,0,3.145-3.148v-5.475A6.622,6.622,0,0,0,435.778-171.207Z"
       transform="translate(-347.192 221.334)"
       fill="#fff"
       id="path23"
       style="fill:#021851;fill-opacity:1" />
  </g>
</svg>
