<?xml version="1.0" encoding="UTF-8" standalone="no"?>
<svg
   viewBox="0 0 393.34 393.34"
   version="1.1"
   id="svg250"
   sodipodi:docname="Signum_Logomark_blue_filled.svg"
   inkscape:version="1.2.2 (732a01da63, 2022-12-09)"
   xmlns:inkscape="http://www.inkscape.org/namespaces/inkscape"
   xmlns:sodipodi="http://sodipodi.sourceforge.net/DTD/sodipodi-0.dtd"
   xmlns="http://www.w3.org/2000/svg"
   xmlns:svg="http://www.w3.org/2000/svg">
  <sodipodi:namedview
     id="namedview252"
     pagecolor="#ffffff"
     bordercolor="#666666"
     borderopacity="1.0"
     inkscape:showpageshadow="2"
     inkscape:pageopacity="0.0"
     inkscape:pagecheckerboard="0"
     inkscape:deskcolor="#d1d1d1"
     showgrid="false"
     inkscape:zoom="2.0694564"
     inkscape:cx="194.73713"
     inkscape:cy="196.67"
     inkscape:window-width="1920"
     inkscape:window-height="1017"
     inkscape:window-x="-8"
     inkscape:window-y="-8"
     inkscape:window-maximized="1"
     inkscape:current-layer="Ebene_1-2" />
  <defs
     id="defs218">
    <style
       id="style216">.cls-1{fill:#fff;}</style>
  </defs>
  <g
     id="Ebene_2"
     data-name="Ebene 2">
    <g
       id="Ebene_1-2"
       data-name="Ebene 1">
      <g
         id="Ebene_2-2"
         data-name="Ebene 2">
        <g
           id="Ebene_1-2-2"
           data-name="Ebene 1-2">
          <path
             d="M196.67,0C88.05,0,0,88.05,0,196.67S88.05,393.34,196.67,393.34s196.67-88,196.67-196.67S305.29,0,196.67,0Z"
             id="path220" />
        </g>
      </g>
      <path
         class="cls-1"
         d="M331.34,143.47a28.72,28.72,0,0,1,0,40.56l-41,41-15.49-15.49,41-41a6.77,6.77,0,0,0,0-9.58h0l-14-14-11.51,11.51L274.82,141l27-27Z"
         id="path224" />
      <rect
         class="cls-1"
         x="256.14"
         y="128.81"
         width="21.9"
         height="63.49"
         transform="translate(-35.32 235.79) rotate(-44.98)"
         id="rect226" />
      <path
         class="cls-1"
         d="M209.32,62a28.71,28.71,0,0,1,40.55,0l29.52,29.52-32.92,32.92L217,154a28.71,28.71,0,0,1-40.55,0l-8.12-8.12,15.49-15.49,8.11,8.12a6.78,6.78,0,0,0,9.58,0l47-47-14-14a6.78,6.78,0,0,0-9.58,0l-6.72,6.72L202.59,68.72Z"
         id="path228" />
      <polygon
         class="cls-1"
         points="145.85 156.44 130.37 141 175.26 96.1 190.75 111.59 145.85 156.44"
         id="polygon230" />
      <path
         class="cls-1"
         d="M143.47,62A28.72,28.72,0,0,1,184,62l41,41-15.49,15.48-41-41a6.78,6.78,0,0,0-9.58,0l-14,14L156.44,103,141,118.52l-27-27Z"
         id="path232" />
      <path
         class="cls-1"
         d="M62,143.47,91.52,114,154,176.39A28.72,28.72,0,0,1,154,217l-8.11,8.11-15.48-15.49,8.11-8.11a6.78,6.78,0,0,0,0-9.58l-47-47-14,14a6.78,6.78,0,0,0,0,9.58l6.72,6.72L68.72,190.75,62,184A28.72,28.72,0,0,1,62,143.47Z"
         id="path234" />
      <polygon
         class="cls-1"
         points="156.44 247.47 141 263 96.1 218.1 111.59 202.61 156.44 247.47"
         id="polygon236" />
      <path
         class="cls-1"
         d="M62,249.87a28.71,28.71,0,0,1,0-40.55l41-41,15.48,15.49-41,41a6.78,6.78,0,0,0,0,9.58l14,14L103,236.9l15.48,15.49-27,27Z"
         id="path238" />
      <path
         class="cls-1"
         d="M184,331.34a28.72,28.72,0,0,1-40.56,0L114,301.82l62.45-62.44a28.71,28.71,0,0,1,40.55,0l8.11,8.11L209.57,263l-8.11-8.11a6.78,6.78,0,0,0-9.58,0l-46.95,46.95,14,14a6.78,6.78,0,0,0,9.58,0l6.72-6.73,15.49,15.49Z"
         id="path240" />
      <polygon
         class="cls-1"
         points="247.46 236.9 263 252.39 218.1 297.29 202.59 281.8 247.46 236.9"
         id="polygon242" />
      <path
         class="cls-1"
         d="M249.84,331.34a28.71,28.71,0,0,1-40.55,0l-41-41,15.49-15.49,41,41a6.78,6.78,0,0,0,9.58,0l14-14L236.9,290.31l15.49-15.49,27,27Z"
         id="path244" />
      <path
         class="cls-1"
         d="M331.31,249.87l-29.52,29.52L239.38,217a28.71,28.71,0,0,1,0-40.55l8.11-8.11L263,183.77l-8.11,8.11a6.78,6.78,0,0,0,0,9.58l47,47,14-14a6.77,6.77,0,0,0,0-9.58h0l-6.72-6.72,15.49-15.49,6.72,6.73a28.7,28.7,0,0,1,0,40.47Z"
         id="path246" />
      <path
         style="fill:#0099ff;fill-rule:evenodd;stroke:#12681b;stroke-width:0.0840116;stroke-linejoin:bevel;paint-order:markers fill stroke;fill-opacity:1"
         d="M 184.34792,392.79695 C 143.12944,389.8366 105.59447,375.25248 73.690848,349.80141 65.312285,343.11743 50.210962,328.01437 43.542034,319.64915 14.229126,282.88027 -0.83339942,238.26474 0.3920038,191.83781 1.5450182,148.15349 16.279498,107.79912 43.53068,73.690848 50.237129,65.29689 65.340984,50.198718 73.690848,43.542034 103.3829,19.870927 136.47602,6.121218 175.17159,1.3782797 183.9322,0.30448667 207.22975,0.15706127 215.99875,1.1199281 256.52832,5.5702182 292.34456,20.6564 322.79007,46.101571 c 6.51003,5.440823 17.59962,16.452816 23.16077,22.998699 26.02186,30.629637 41.00156,65.16389 46.0099,106.07132 1.05665,8.63059 1.21346,32.60932 0.26699,40.82716 -4.58268,39.78958 -18.43006,73.62597 -42.41841,103.6504 -6.68873,8.37179 -21.78838,23.47144 -30.16017,30.16017 -29.4384,23.52014 -63.05704,37.50447 -101.23431,42.11041 -6.02041,0.72633 -28.21158,1.29776 -34.06692,0.87722 z m -15.36597,-53.36722 c 3.5344,-0.71029 7.39869,-2.25531 10.44432,-4.17584 2.82278,-1.78 11.2035,-9.62302 11.2035,-10.48469 0,-0.29744 -3.47288,-4.00858 -7.71749,-8.24698 l -7.71749,-7.70619 -4.24218,4.14624 c -6.96044,6.80304 -7.67074,6.65701 -18.01521,-3.70363 l -7.4809,-7.4926 23.91549,-23.927 c 19.01446,-19.02363 24.26753,-24.02267 25.63339,-24.39381 2.97084,-0.80725 4.60379,0.0617 9.74947,5.18809 l 4.72403,4.70629 7.96952,-7.95854 7.96953,-7.95855 -4.46798,-4.51644 c -7.27408,-7.35298 -11.83248,-10.16004 -18.64464,-11.48138 -6.73707,-1.30678 -12.25365,-0.50568 -18.92382,2.74805 -4.0979,1.99896 -4.1831,2.07918 -36.96623,34.80315 l -32.85887,32.79957 16.67104,16.57448 c 15.32889,15.24009 16.96282,16.7192 20.29519,18.37212 5.83991,2.89669 12.59107,3.88697 18.45933,2.70766 z m 66.76638,-0.2056 c 1.82608,-0.38688 4.97908,-1.50984 7.00667,-2.49547 3.44251,-1.67343 4.78999,-2.88906 20.35757,-18.36558 l 16.67104,-16.57353 -13.64871,-13.65739 -13.64872,-13.65739 -7.97443,7.96345 -7.97445,7.96346 5.67024,5.68504 5.67024,5.68505 -7.47804,7.48973 c -4.78038,4.78786 -8.04703,7.67751 -9.05532,8.01028 -3.45991,1.14187 -3.33032,1.24844 -26.09821,-21.46167 l -21.38334,-21.32908 -7.97392,7.96293 -7.97392,7.96293 21.14255,21.17055 c 21.53136,21.55988 24.49213,24.15454 30.08209,26.36231 5.20055,2.05396 10.897,2.49448 16.60866,1.28438 z m 5.13441,-64.27093 22.464,-22.4679 -7.96569,-7.97667 -7.96569,-7.97667 -22.59247,22.58863 -22.59247,22.58864 7.84511,7.85593 c 4.31481,4.32076 7.95718,7.85593 8.09416,7.85593 0.13698,0 10.35784,-10.11055 22.71305,-22.46789 z m -135.5422,-8.94019 13.52252,-13.529 -7.96236,-7.97335 -7.96238,-7.97336 -5.685044,5.67024 -5.685048,5.67024 -7.489725,-7.47804 c -4.787861,-4.78038 -7.677514,-8.04703 -8.010282,-9.05532 -1.141875,-3.4599 -1.248434,-3.33032 21.461587,-26.09812 l 21.328992,-21.38326 -7.71934,-7.73066 c -4.24563,-4.25187 -7.94493,-7.73067 -8.22065,-7.73067 -0.98212,0 -43.107892,42.71553 -44.795417,45.42255 -5.692592,9.13171 -6.227162,19.45348 -1.501568,28.99312 1.649529,3.32993 3.129377,4.96772 18.228883,20.17438 9.038489,9.10263 16.553699,16.55024 16.700467,16.55024 0.146763,0 6.351982,-6.08805 13.789365,-13.52899 z m 213.14875,-3.02125 c 15.09951,-15.20666 16.57936,-16.84445 18.22889,-20.17438 4.27992,-8.63996 4.2426,-17.5701 -0.11014,-26.3543 -1.52523,-3.07804 -3.04196,-5.11138 -6.61861,-8.87298 -2.55198,-2.68392 -4.89219,-4.87987 -5.20049,-4.87987 -0.3083,0 -4.02832,3.47288 -8.26672,7.71749 l -7.70619,7.71749 4.14624,4.24218 c 6.91928,7.07937 6.77346,7.86093 -3.38629,18.14999 l -7.53015,7.62598 -24.06689,-24.05542 c -19.13803,-19.12889 -24.16249,-24.40724 -24.5337,-25.77332 -0.80726,-2.97083 0.0617,-4.60379 5.18799,-9.74939 l 4.70621,-4.72394 -7.71846,-7.72979 c -4.24516,-4.25139 -7.96826,-7.72979 -8.27356,-7.72979 -0.30529,0 -2.96316,2.50491 -5.90637,5.56647 -4.33325,4.50749 -5.72422,6.32308 -7.31159,9.54357 -2.0509,4.16091 -3.36993,9.20789 -3.38415,12.9487 -0.0198,5.20472 2.03886,12.05157 4.91603,16.35019 1.3389,2.00037 65.48251,66.73136 66.12583,66.73136 0.14767,0 7.66363,-7.44761 16.70212,-16.55024 z m -169.53335,-7.73512 7.84512,-7.85594 -22.59248,-22.58863 -22.59247,-22.58864 -7.96569,7.97667 -7.965681,7.97668 22.464001,22.46789 c 12.3552,12.35734 22.57607,22.4679 22.71305,22.4679 0.13697,0 3.77935,-3.53517 8.09415,-7.85593 z m 10.39916,-45.29813 c 4.7045,-9.37826 4.11958,-20.50501 -1.53194,-29.14136 -1.29958,-1.98595 -12.776,-13.80248 -34.11569,-35.12672 L 91.550156,113.55639 74.976775,130.22743 c -15.476296,15.56749 -16.692011,16.91508 -18.365436,20.35757 -3.224113,6.63251 -3.974575,13.24518 -2.262768,19.93829 1.522109,5.95139 3.904832,9.90451 9.410567,15.61284 l 4.857914,5.03666 7.953542,-7.98892 7.953543,-7.98891 -4.146321,-4.24226 c -6.803139,-6.96055 -6.657125,-7.67081 3.703547,-18.0153 l 7.492596,-7.4809 23.919511,23.91549 c 16.62114,16.61834 24.07788,24.39517 24.43855,25.48761 0.95233,2.88444 0.18488,4.35889 -5.03557,9.67458 l -4.87592,4.96487 7.95575,7.98403 7.95576,7.98404 5.80252,-5.94223 c 4.59506,-4.7057 6.18084,-6.6964 7.62054,-9.56638 z m 152.88527,-6.40264 c 13.30538,-13.33929 21.94966,-22.38214 22.98054,-24.04013 5.68902,-9.14976 6.22141,-19.4539 1.49802,-28.99312 -1.65089,-3.33409 -3.12045,-4.95838 -18.36194,-20.29519 l -16.56744,-16.67104 -13.65739,13.64871 -13.65739,13.64872 7.96345,7.97443 7.96346,7.97445 5.68504,-5.67024 5.68505,-5.67024 7.48973,7.47804 c 4.78786,4.78038 7.67751,8.04703 8.01028,9.05532 1.14187,3.4599 1.24843,3.33032 -21.46159,26.09812 l -21.32899,21.38326 7.71934,7.73066 c 4.24563,4.25187 7.94263,7.73067 8.21554,7.73067 0.27292,0 10.09385,-9.62209 21.82429,-21.38242 z m -37.16694,-50.97708 -22.58682,-22.58683 -7.97733,7.96634 -7.97732,7.96634 22.5904,22.59423 22.5904,22.59424 7.97375,-7.97375 7.97374,-7.97375 z m -72.18397,9.30409 c 1.82608,-0.38688 4.97908,-1.5065 7.00667,-2.48803 3.55871,-1.72273 4.83413,-2.92958 36.787,-34.80912 L 279.78361,91.561212 263.11257,74.988391 C 247.77226,59.738469 246.15223,58.27233 242.81738,56.621066 c -9.53147,-4.719549 -19.94739,-4.18349 -28.94189,1.489497 -1.43356,0.904175 -4.64978,3.638023 -7.14717,6.075219 l -4.5407,4.43127 7.96915,7.943994 7.96915,7.943999 4.29933,-4.144557 c 7.05898,-6.804874 7.95516,-6.6266 18.34772,3.649823 l 7.37835,7.295896 -24.0494,24.053383 c -16.71484,16.7176 -24.52886,24.21167 -25.62152,24.57243 -2.88443,0.95233 -4.35889,0.18488 -9.67449,-5.03549 l -4.96479,-4.87583 -7.7197,7.7084 c -4.24584,4.23961 -7.71971,7.94909 -7.71971,8.24326 0,0.88141 9.80608,10.14423 12.61421,11.91537 6.78939,4.28221 14.1624,5.62887 21.87354,3.99515 z m -19.7501,-58.22939 -7.97375,-7.973743 -22.58682,22.586823 -22.58683,22.58682 7.96634,7.97733 7.96634,7.97732 22.59423,-22.5904 22.59424,-22.5904 z m -34.19328,7.13062 7.8569,-7.84607 -5.81101,-5.824989 -5.81101,-5.824993 7.38221,-7.276945 c 7.7902,-7.679118 9.49129,-8.779527 12.57848,-8.136871 1.24029,0.258189 6.04639,4.792809 22.95205,21.655566 l 21.38326,21.328992 7.73066,-7.71934 c 4.25187,-4.24563 7.73067,-7.94493 7.73067,-8.22065 0,-0.98632 -42.71683,-43.108269 -45.50575,-44.872027 -8.59994,-5.438747 -19.49576,-5.981498 -28.84473,-1.436831 -3.44593,1.675116 -4.7892,2.886801 -20.36038,18.365885 l -16.67104,16.572444 13.52688,13.540949 c 7.43979,7.44753 13.63467,13.54095 13.76641,13.54095 0.13173,0 3.77511,-3.53072 8.0964,-7.84607 z"
         id="path577" />
    </g>
  </g>
</svg>
